<svg width="193" height="192" viewBox="0 0 193 192" fill="none" xmlns="http://www.w3.org/2000/svg">
<path d="M85.2871 84.0519L96.1073 73.2954L106.927 84.0519L96.1073 94.8085L85.2871 84.0519Z" fill="#FFF"/>
<path fill-rule="evenodd" clip-rule="evenodd" d="M35.748 84.0519L96.1181 24.0366L156.488 84.0519L96.1181 144.067L35.748 84.0519ZM67.1129 84.0519L96.1181 112.887L125.123 84.0519L96.1181 55.2171L67.1129 84.0519Z" fill="#FFF"/>
<path fill-rule="evenodd" clip-rule="evenodd" d="M11.4609 84.1509L96.1092 2.76365e-05L180.757 84.1509L96.1092 168.302L11.4609 84.1509ZM17.7339 84.1509L96.1092 162.066L174.484 84.1509L96.1092 6.23614L17.7339 84.1509Z" fill="#FFF"/>
<path fill-rule="evenodd" clip-rule="evenodd" d="M26.1704 92.5328L26.1703 92.5329L11.1152 107.5L26.1703 122.466L81.0601 177.034L96.1152 192L111.17 177.034L166.06 122.466L181.115 107.5L166.06 92.5329L151.005 107.5L135.95 122.466L111.17 147.1L96.1153 162.067L96.1152 162.067L81.0601 147.1L56.2806 122.466L41.2255 107.5L41.2256 107.499L26.1704 92.5328Z" fill="#FFF"/>
</svg>