<svg width="50" height="50" viewBox="0 0 50 50" fill="none" xmlns="http://www.w3.org/2000/svg"><path fill-rule="evenodd" clip-rule="evenodd" d="M25.7358 21.4838V1.64563C25.7358 1.09998 25.2955 0.659668 24.7498 0.659668C24.2042 0.659668 23.7638 1.09998 23.7638 1.64563V21.4838C23.7638 22.0294 24.2042 22.4698 24.7498 22.4698C25.2955 22.4698 25.7358 22.0294 25.7358 21.4838ZM27.2785 24.9998C27.2785 24.4541 27.7188 24.0138 28.2645 24.0139L48.1021 24.0135C48.6478 24.0136 49.0882 24.454 49.0883 24.9997C49.0883 25.5454 48.648 25.9858 48.1023 25.9857L28.2647 25.986C27.719 25.986 27.2786 25.5455 27.2785 24.9998ZM0.409436 24.9998C0.406734 24.4567 0.849844 24.0136 1.39292 24.0163L21.2329 24.0136C21.7787 24.0136 22.2191 24.454 22.2191 24.9998C22.2191 25.5456 21.7787 25.986 21.2329 25.986L1.39292 25.9833C0.849844 25.986 0.406734 25.5429 0.409436 24.9998ZM23.7639 48.3539L23.7636 28.516C23.7636 27.9703 24.204 27.5299 24.7498 27.5298C25.2955 27.5298 25.7358 27.9701 25.7357 28.5158L25.736 48.3536C25.736 48.8993 25.2956 49.3398 24.7499 49.3398C24.2041 49.3399 23.7638 48.8996 23.7639 48.3539Z" fill="#EFECEA"></path></svg>