<svg width="48" height="48" viewBox="0 0 48 48" fill="none" xmlns="http://www.w3.org/2000/svg"><path fill-rule="evenodd" clip-rule="evenodd" d="M24.9475 20.1833L24.9475 0.955159C24.9475 0.426281 24.5207 -0.000488281 23.9918 -0.000488281C23.463 -0.000488281 23.0362 0.426281 23.0362 0.955159L23.0362 20.1833C23.0362 20.7122 23.463 21.1389 23.9919 21.1389C24.5207 21.1389 24.9475 20.7122 24.9475 20.1833ZM26.8558 24.001C26.8558 23.4721 27.2825 23.0453 27.8114 23.0453L47.0369 23.0427C47.5658 23.0427 47.9926 23.4695 47.9926 23.9984C47.9926 24.5272 47.5658 24.954 47.0369 24.954L27.8114 24.9566C27.2825 24.9566 26.8558 24.5299 26.8558 24.001ZM0.000256051 24.0009C-0.00236216 23.4746 0.427025 23.0452 0.953285 23.0478L20.1788 23.0452C20.7077 23.0452 21.1345 23.472 21.1345 24.0009C21.1345 24.5297 20.7077 24.9565 20.1788 24.9565L0.953285 24.9539C0.427025 24.9565 -0.00236216 24.5271 0.000256051 24.0009ZM23.046 47.0441L23.0433 27.8186C23.0433 27.2897 23.4701 26.863 23.999 26.863C24.5279 26.863 24.9546 27.2897 24.9546 27.8186L24.9573 47.0441C24.9573 47.573 24.5305 47.9998 24.0016 47.9998C23.4727 47.9998 23.046 47.573 23.046 47.0441Z" fill="black"></path></svg>