<svg class="icon icon-tabler icon-tabler-face-id-error" fill="none" height="24" stroke="#EFECEA" stroke-linecap="round" stroke-linejoin="round" stroke-width="2" viewBox="0 0 24 24" width="24" xmlns="http://www.w3.org/2000/svg"><path d="M0 0h24v24H0z" fill="none" stroke="none"></path><path d="M4 8v-2a2 2 0 0 1 2 -2h2"></path><path d="M4 16v2a2 2 0 0 0 2 2h2"></path><path d="M16 4h2a2 2 0 0 1 2 2v2"></path><path d="M16 20h2a2 2 0 0 0 2 -2v-2"></path><path d="M9 10h.01"></path><path d="M15 10h.01"></path><path d="M9.5 15.05a3.5 3.5 0 0 1 5 0"></path></svg>