<svg width="25" height="72" viewBox="0 0 25 72" fill="none" xmlns="http://www.w3.org/2000/svg">
<g clip-path="url(#clip0_233_7824)">
<path d="M12.8705 9.01663L15.1157 6.76503C16.3557 5.51642 16.3557 3.50021 15.1157 2.2516L12.8705 0L10.6202 2.25672C9.99769 2.88102 9.69153 3.69467 9.69153 4.51343C9.69153 5.3322 10.0028 6.14584 10.6202 6.76503L12.8705 9.02175V9.01663Z" fill="#0AF2AD"/>
<path d="M13.069 22.0246L12.87 21.8916L0.904053 13.8779C1.53169 15.4694 2.491 16.9534 3.77179 18.243C6.28233 20.7607 9.5787 22.0246 12.87 22.0349C16.1816 22.04 19.4933 20.776 22.0192 18.243C23.2642 16.9943 24.2031 15.5513 24.8359 14.011L13.069 22.0297V22.0246Z" fill="#0AF2AD"/>
<path d="M12.8729 18.0589C14.6435 18.0589 16.4091 17.3834 17.7613 16.0273C20.4607 13.3203 20.4607 8.92969 17.7613 6.22777L12.8729 11.1301L7.98447 6.22266C5.28512 8.92969 5.28512 13.3203 7.98447 16.0222C9.33669 17.3783 11.1022 18.0538 12.8729 18.0538V18.0589Z" fill="#0AF2AD"/>
</g>
<path opacity="0.4" d="M13.3687 72L13.3687 26" stroke="#9DA0AA" stroke-dasharray="4 4"/>
<defs>
<clipPath id="clip0_233_7824">
<rect width="23.9318" height="22.0299" fill="white" transform="translate(0.904053)"/>
</clipPath>
</defs>
</svg>
