<svg width="25" height="42" viewBox="0 0 25 42" fill="none" xmlns="http://www.w3.org/2000/svg">
<g opacity="0.4">
<g clip-path="url(#clip0_233_7848)">
<path d="M12.5679 9.01663L14.8131 6.76503C16.0531 5.51642 16.0531 3.50021 14.8131 2.2516L12.5679 0L10.3176 2.25672C9.69508 2.88102 9.38892 3.69467 9.38892 4.51343C9.38892 5.3322 9.70018 6.14584 10.3176 6.76503L12.5679 9.02175V9.01663Z" fill="#9DA0AA"/>
<path d="M12.7665 22.0246L12.5675 21.8916L0.601562 13.8779C1.2292 15.4694 2.18851 16.9534 3.4693 18.243C5.97984 20.7607 9.27621 22.0246 12.5675 22.0349C15.8791 22.04 19.1908 20.776 21.7167 18.243C22.9617 16.9943 23.9006 15.5513 24.5334 14.011L12.7665 22.0297V22.0246Z" fill="#9DA0AA"/>
<path d="M12.5704 18.0589C14.341 18.0589 16.1066 17.3834 17.4588 16.0273C20.1582 13.3203 20.1582 8.92969 17.4588 6.22777L12.5704 11.1301L7.68198 6.22266C4.98263 8.92969 4.98263 13.3203 7.68198 16.0222C9.0342 17.3783 10.7997 18.0538 12.5704 18.0538V18.0589Z" fill="#9DA0AA"/>
</g>
</g>
<line opacity="0.4" x1="13.064" y1="42" x2="13.064" y2="26" stroke="#9DA0AA" stroke-dasharray="4 4"/>
<defs>
<clipPath id="clip0_233_7848">
<rect width="23.9318" height="22.0299" fill="white" transform="translate(0.601562)"/>
</clipPath>
</defs>
</svg>
