<svg width="500" height="500" viewBox="0 0 500 500" fill="none" xmlns="http://www.w3.org/2000/svg">
<g clip-path="url(#clip0_539_6450)">
<path fill-rule="evenodd" clip-rule="evenodd" d="M322.94 41.3886C323.699 42.6728 322.696 44.2603 321.204 44.2603C291.01 44.2603 266.465 68.1656 265.889 97.871C255.55 95.9407 244.837 95.7956 234.254 97.5787C233.523 68.009 209.04 44.2603 178.945 44.2603C177.453 44.2603 176.449 42.6716 177.208 41.3865C191.824 16.6329 218.983 0 250.074 0C281.165 0 308.325 16.6339 322.94 41.3886ZM425.483 229.083C429.839 230.402 433.985 226.571 432.759 222.188C409.314 138.356 318.029 104.358 249.659 104.358C181.199 104.358 87.8748 139.412 66.8034 222.395C65.6989 226.745 69.8303 230.445 74.121 229.13L245.93 176.484C247.828 175.902 249.857 175.898 251.758 176.474L425.483 229.083ZM69.2168 239.426L246.036 185.799C247.923 185.227 249.937 185.226 251.825 185.795L429.732 239.452C444.26 243.833 454.202 257.216 454.202 272.39V430.481C453.528 469.07 418.862 500 380.286 500H316.213C309.879 500 304.75 494.877 304.75 488.543V433.115C304.75 411.289 317.667 391.535 337.655 382.792C364.449 371.071 396.146 355.218 402.108 323.406C404.033 313.138 397.337 303.234 387.096 301.198C361.199 296.051 332.489 298.039 308.212 308.898C280.65 321.225 273.441 341.73 270.771 369.27L267.536 398.938C266.548 408.005 258.047 414.952 248.93 414.952C239.498 414.952 232.426 407.769 231.404 398.388L228.229 369.27C225.942 345.681 221.798 322.767 197.412 311.86C169.596 299.419 141.642 295.287 111.904 301.198C101.663 303.234 94.9673 313.138 96.8916 323.406C102.906 355.495 134.354 370.985 161.345 382.792C181.333 391.535 194.25 411.289 194.25 433.115V488.533C194.25 494.867 189.123 500 182.789 500H118.714C80.1377 500 45.4719 469.07 44.7982 430.481V272.349C44.7982 257.194 54.7145 243.824 69.2168 239.426Z" fill="url(#paint0_linear_539_6450)"/>
</g>
<defs>
<linearGradient id="paint0_linear_539_6450" x1="245.486" y1="-27" x2="424.997" y2="502.376" gradientUnits="userSpaceOnUse">
<stop stop-color="#F5D45E"/>
<stop offset="1" stop-color="#FF9600"/>
</linearGradient>
<clipPath id="clip0_539_6450">
<rect width="500" height="500" fill="white"/>
</clipPath>
</defs>
</svg>
