<svg width="954" height="240" viewBox="0 0 954 240" fill="none" xmlns="http://www.w3.org/2000/svg">
<path fill-rule="evenodd" clip-rule="evenodd" d="M180.876 107.874C155.573 88.688 139.1 76.9329 120.018 76.9329C96.2681 76.9329 76.942 96.25 76.9329 120C76.942 143.75 96.2681 163.067 120.018 163.067C139.1 163.067 155.578 151.307 180.876 132.126L181.082 131.97C186.145 128.133 191.42 124.134 196.951 120.145V120.223C202.556 116.18 207.899 112.133 213.024 108.244C238.322 89.0579 254.8 77.3028 273.882 77.3028C285.388 77.3028 296.21 81.7857 304.347 89.9227C312.48 98.0553 316.967 108.868 316.967 120.37C316.962 131.871 312.48 142.685 304.347 150.817C296.21 158.954 285.392 163.437 273.882 163.437C254.8 163.437 238.322 151.677 213.024 132.496L212.819 132.341L212.818 132.34C207.755 128.503 202.481 124.505 196.951 120.516V215.19C192.355 218.125 187.619 220.932 182.692 223.54C161.763 234.616 141.264 240 120.018 240C103.83 240 88.1084 236.821 73.2878 230.554C58.9925 224.505 46.1598 215.856 35.1519 204.848C24.1395 193.84 15.4907 181.008 9.44568 166.712C3.18328 151.901 0.00452813 136.193 0 120.018V119.986C0.00452813 103.812 3.18328 88.0993 9.44568 73.2878C15.4953 58.9925 24.144 46.1598 35.1519 35.1519C46.1598 24.1395 58.9925 15.4907 73.2878 9.44568C88.1129 3.17875 103.835 0 120.018 0C141.264 0 161.763 5.38395 182.692 16.4598C187.614 19.068 192.355 21.8754 196.951 24.8096V119.855C191.345 115.811 186.002 111.763 180.876 107.874ZM396.81 89.9029C380.343 89.904 374.932 103.18 374.932 120.015C374.932 136.852 380.339 150.255 396.812 150.255C410.456 150.255 415.25 141.651 416.479 131.45H435.901C433.933 151.362 420.539 165.867 397.062 165.867C370.26 165.862 355.388 146.567 355.388 120.26C355.388 93.9533 370.75 74.2911 397.547 74.2911C420.779 74.2911 433.806 88.4288 435.896 107.724H416.475C414.878 98.5032 410.329 89.9039 396.81 89.9029ZM461.217 126.651C446.961 129.599 436.266 134.271 436.266 147.67L436.271 147.674C436.271 158.614 444.135 165.867 456.55 165.867C466.016 165.867 473.268 161.812 477.568 155.911H477.813C478.675 161.934 481.746 164.638 488.876 164.638C491.457 164.638 494.772 164.266 497.97 163.653V155.049C497.235 155.172 496.863 155.172 496.373 155.172C494.282 155.172 493.792 153.448 493.792 149.638V123.58C493.792 105.51 484.081 99.1195 468.47 99.1195C448.063 99.1195 439.582 109.198 438.969 121.245H455.194C455.806 114.237 459.248 111.044 467.853 111.044C474.738 111.044 477.441 113.87 477.441 117.802C477.441 123.487 470.393 124.86 463.014 126.298L463.013 126.298L463.013 126.298C462.415 126.415 461.815 126.532 461.217 126.651ZM477.441 132.307V138.943H477.437C477.437 147.547 471.658 153.815 462.687 153.815C456.786 153.815 453.715 151.357 453.715 146.073C453.715 140.789 457.035 137.841 465.639 135.872C471.295 134.521 475.105 133.536 477.441 132.307ZM518.244 101.21V112.028H518.489C521.687 105.02 526.971 100.349 534.469 100.349C536.31 100.349 537.911 100.349 539.997 100.716V115.834C538.401 115.589 537.294 115.466 535.943 115.466C526.354 115.466 518.244 122.102 518.244 133.536V164.021H501.403V101.21H518.244ZM559.546 164.016V157.258H559.791C562.617 161.191 569.13 165.862 578.474 165.862C594.943 165.862 606.128 153.203 606.128 132.552C606.128 111.901 594.943 99.2419 578.474 99.2419C569.135 99.2419 562.617 104.159 559.791 107.846H559.546V76.137H542.705V164.016H559.546ZM574.296 152.958C565.32 152.958 559.914 145.583 559.914 132.552C559.914 119.648 565.325 112.273 574.296 112.273C583.762 112.273 588.801 120.26 588.801 132.552C588.801 144.844 583.762 152.958 574.296 152.958ZM607.364 132.675C607.364 113.008 619.656 99.1195 640.307 99.1195C660.958 99.1195 672.878 112.64 672.878 132.43C672.878 152.219 660.586 165.985 640.057 165.985C619.529 165.985 607.364 152.464 607.364 132.675ZM655.669 132.552C655.669 120.015 650.385 112.146 640.18 112.146C629.974 112.146 624.568 120.011 624.568 132.552C624.568 145.093 629.852 153.081 640.18 153.081C650.507 153.081 655.669 145.093 655.669 132.552ZM693.279 101.21H676.438V164.016H693.279V126.896C693.279 117.802 698.563 113.13 707.045 113.13C714.543 113.13 717.985 117.19 717.985 126.284V164.025H734.826V121.127C734.826 106.744 726.222 99.2465 714.175 99.2465C703.235 99.2465 696.844 104.408 693.524 109.815H693.279V101.21ZM737.771 147.67C737.771 134.271 748.467 129.599 762.722 126.651C762.94 126.608 763.157 126.565 763.375 126.522L763.635 126.471C763.928 126.413 764.222 126.356 764.515 126.299L764.519 126.298C771.898 124.86 778.947 123.487 778.947 117.802C778.947 113.87 776.243 111.044 769.358 111.044C760.754 111.044 757.311 114.237 756.699 121.245H740.475C741.087 109.198 749.569 99.1195 769.975 99.1195C785.587 99.1195 795.298 105.51 795.298 123.58V149.638C795.298 153.448 795.788 155.172 797.879 155.172C798.368 155.172 798.74 155.172 799.475 155.049V163.653C796.278 164.266 792.962 164.638 790.381 164.638C783.251 164.638 780.18 161.934 779.319 155.911H779.074C774.774 161.812 767.521 165.867 758.055 165.867C745.641 165.867 737.776 158.614 737.776 147.674L737.771 147.67ZM778.947 138.943V132.307C776.611 133.536 772.801 134.521 767.145 135.872C758.54 137.841 755.22 140.789 755.22 146.073C755.22 151.357 758.291 153.815 764.192 153.815C773.164 153.815 778.942 147.547 778.942 138.943H778.947ZM819.75 164.016V157.258H819.995C822.82 161.191 829.334 165.862 838.677 165.862C855.146 165.862 866.331 153.203 866.331 132.552C866.331 111.901 855.146 99.2419 838.677 99.2419C829.338 99.2419 822.82 104.159 819.995 107.846H819.75V76.137H802.909V164.016H819.75ZM834.5 152.958C825.524 152.958 820.117 145.583 820.117 132.552C820.117 119.648 825.528 112.273 834.5 112.273C843.966 112.273 849.005 120.26 849.005 132.552C849.005 144.844 843.966 152.958 834.5 152.958ZM886.738 76.137V164.021H869.897V76.137H886.738ZM922.503 99.1195C902.097 99.1195 890.422 113.625 890.422 132.552C890.422 152.096 902.224 165.985 922.503 165.985C939.712 165.985 949.668 157.381 953.11 144.844H936.024C934.795 148.409 931.352 153.081 922.871 153.081C913.65 153.081 907.504 146.445 907.381 137.101H953.723V133.536C953.723 111.779 942.909 99.1195 922.503 99.1195ZM936.641 125.916H907.386C908.121 117.063 913.65 111.779 922.381 111.779C931.112 111.779 936.641 117.19 936.641 125.916Z" fill="white"/>
</svg>
