<svg width="691" height="158" viewBox="0 0 691 158" fill="none" xmlns="http://www.w3.org/2000/svg">
<g clip-path="url(#clip0_302_196)">
<path d="M690.596 54.5832V45.4957C690.596 45.1353 690.304 44.8433 689.944 44.8433H638.164C637.804 44.8433 637.512 45.1353 637.512 45.4957V54.5832H658.556V113.373H669.551V54.5832H690.596Z" fill="white"/>
<path d="M583.395 44.8433C583.034 44.8433 582.742 45.1353 582.742 45.4956V112.721C582.742 113.081 583.034 113.373 583.395 113.373H626.969C627.329 113.373 627.621 113.081 627.621 112.721V103.73H593.737V82.1923H621.732V72.7419H593.737V54.4867H625.208V45.4957C625.208 45.1353 624.916 44.8433 624.555 44.8433H583.395Z" fill="white"/>
<path d="M558.127 112.974L558.364 113.373H566.81C567.171 113.373 567.463 113.081 567.463 112.721V45.4957C567.463 45.1353 567.171 44.8433 566.81 44.8433H556.661V92.304C554.899 89.4986 552.853 86.4104 550.523 83.0401C547.556 78.6539 544.364 74.2044 540.947 69.6916C537.595 65.1146 534.178 60.6981 530.696 56.4421C527.275 52.1185 524.044 48.3371 521.001 45.1002L520.76 44.8433H512.811C512.45 44.8433 512.158 45.1353 512.158 45.4956V112.721C512.158 113.081 512.45 113.373 512.811 113.373H522.96V62.5303C524.348 64.1692 525.825 65.9855 527.392 67.9796C529.509 70.6741 531.691 73.5623 533.939 76.6444L533.941 76.6477L533.944 76.651C536.189 79.6669 538.436 82.8118 540.683 86.0858L540.686 86.0902L540.689 86.0946C543.001 89.3702 545.216 92.6132 547.335 95.8236L547.337 95.8268L547.34 95.8299C549.457 98.9741 551.413 102.02 553.208 104.969L553.211 104.975L553.215 104.98C555.078 107.936 556.716 110.601 558.127 112.974Z" fill="white"/>
<path d="M498.878 46.2082L499.127 45.9352C499.509 45.5164 499.212 44.8433 498.645 44.8433H486.607L486.363 45.1263C484.765 46.9798 482.78 49.1579 480.404 51.6619L480.404 51.6623C478.09 54.1046 475.615 56.6759 472.979 59.3763C470.344 62.0758 467.676 64.7753 464.977 67.4749C462.818 69.5828 460.803 71.5256 458.932 73.3034V44.8433H448.59C448.23 44.8433 447.938 45.1353 447.938 45.4956V112.721C447.938 113.081 448.23 113.373 448.59 113.373H458.932V82.2839C461.202 83.7703 463.523 85.5096 465.894 87.5035L465.898 87.5063L465.901 87.5092C468.773 89.8706 471.583 92.4569 474.331 95.2686L474.337 95.2753L474.344 95.2819C477.153 98.0273 479.803 100.933 482.294 103.998L482.296 104.001L482.299 104.004C484.789 107.005 486.989 110.003 488.9 112.996L489.14 113.373H500.874C501.376 113.373 501.69 112.831 501.44 112.396L501.3 112.151C499.539 109.087 497.328 105.87 494.672 102.5C492.083 99.135 489.301 95.8357 486.326 92.602C483.351 89.3678 480.31 86.3266 477.203 83.4786C474.389 80.8991 471.7 78.6842 469.137 76.8372C471.317 74.7095 473.628 72.4248 476.07 69.9831C478.775 67.2778 481.48 64.5405 484.185 61.7709C486.955 58.9368 489.596 56.199 492.109 53.5575L492.112 53.5539L492.116 53.5503C494.627 50.846 496.881 48.3985 498.878 46.2082Z" fill="white"/>
<path fill-rule="evenodd" clip-rule="evenodd" d="M385.525 44.3296C385.165 44.3297 384.873 44.6218 384.873 44.982V112.762C384.873 113.122 385.165 113.414 385.525 113.414H394.842V88.4938H408.452C409.983 90.3271 411.476 92.2453 412.933 94.2483L412.938 94.2559L412.944 94.2634C415.326 97.3867 417.527 100.645 419.548 104.038L419.55 104.042L419.552 104.046C421.382 107.049 422.979 110.014 424.344 112.943L424.563 113.414H435.588C436.061 113.414 436.376 112.928 436.18 112.498C434.912 109.719 433.538 106.999 432.012 104.348C429.938 100.644 427.663 96.9769 425.188 93.3466C423.773 91.2719 422.328 89.2564 420.853 87.3002C424.965 86.0429 428.219 83.7694 430.572 80.4695L430.574 80.4669C433.399 76.4732 434.799 71.7762 434.799 66.4115C434.799 62.725 434.158 59.3518 432.861 56.3039C431.559 53.2116 429.6 50.6471 426.99 48.6238C424.398 46.5899 421.205 45.2957 417.444 44.7153C416.567 44.5536 415.661 44.4568 414.727 44.4239C413.815 44.3612 413.019 44.3292 412.342 44.3292C409.484 44.3292 406.625 44.3289 403.767 44.3286L403.767 44.3286C397.686 44.328 391.606 44.3276 385.525 44.3296ZM424.643 66.4115C424.643 68.192 424.347 69.9441 423.751 71.6711C423.169 73.3296 422.239 74.7836 420.954 76.0399C419.736 77.2295 418.13 78.0732 416.095 78.5453C415.45 78.6917 414.756 78.7956 414.01 78.8552L414.009 78.8553L414.008 78.8554C413.275 78.9165 412.627 78.9463 412.061 78.9463H394.842V53.8767H412.061C412.627 53.8767 413.275 53.9065 414.008 53.9676L414.025 53.969L414.043 53.9697C414.768 53.9987 415.44 54.0999 416.063 54.2695L416.083 54.2751L416.104 54.2797C418.131 54.7204 419.732 55.561 420.947 56.7763L420.95 56.7797L420.954 56.7829C422.237 58.0373 423.167 59.5058 423.751 61.1967L423.751 61.1988L423.752 61.2009C424.346 62.8947 424.643 64.6304 424.643 66.4115Z" fill="white"/>
<path fill-rule="evenodd" clip-rule="evenodd" d="M360.412 104.326L360.413 104.328L360.414 104.331C361.381 107.105 362.413 109.944 363.51 112.846L363.709 113.373H374.738C375.191 113.373 375.506 112.923 375.351 112.498C372.942 105.879 370.51 99.268 368.029 92.6754C365.775 86.6214 363.553 80.8882 361.362 75.476C359.236 70.0636 357.109 64.9078 354.982 60.0086C352.848 55.0293 350.602 50.0994 348.263 45.2134C348.154 44.9871 347.926 44.8433 347.675 44.8433H338.878C338.627 44.8433 338.398 44.9871 338.29 45.2134C335.95 50.0995 333.705 55.0296 331.571 60.009C329.444 64.9064 327.286 70.0607 325.096 75.4718L325.094 75.4757L325.093 75.4796C322.967 80.8901 320.777 86.622 318.524 92.6751C316.042 99.2678 313.61 105.879 311.201 112.498C311.046 112.923 311.361 113.373 311.814 113.373H322.372L322.373 113.373H322.579L322.821 113.113C325.368 110.378 328.215 107.695 331.363 105.063L331.366 105.06L331.369 105.057C334.529 102.359 337.824 99.8571 341.253 97.5505L341.261 97.5452L341.268 97.5398C344.646 95.153 348.046 93.0112 351.467 91.1138L351.471 91.1117L351.475 91.1094C352.707 90.4082 353.92 89.755 355.114 89.1495L357.422 95.7421L357.424 95.747L357.424 95.7474C358.452 98.6391 359.448 101.499 360.412 104.326ZM348.547 71.8186L348.549 71.8242L348.551 71.8298C349.48 74.1815 350.409 76.5725 351.338 79.0031C351.269 79.0337 351.198 79.0655 351.126 79.0983C347.857 80.5873 344.343 82.5121 340.586 84.8686C336.989 87.1247 333.42 89.5758 329.88 92.2216L331.379 87.9409C333.362 82.3771 335.345 77.0049 337.328 71.8241C339.151 67.1518 341.05 62.6578 343.024 58.3419C344.94 62.6561 346.781 67.1483 348.547 71.8186Z" fill="white"/>
<path d="M313.893 54.5832V45.4957C313.893 45.1353 313.601 44.8433 313.24 44.8433H261.461C261.101 44.8433 260.809 45.1353 260.809 45.4957V54.5832H281.853V112.721C281.853 113.081 282.145 113.373 282.506 113.373H292.196C292.556 113.373 292.848 113.081 292.848 112.721V54.5832H313.893Z" fill="white"/>
<path d="M213.298 112.54L213.295 112.539C209.307 110.839 205.99 108.412 203.36 105.256L203.357 105.251L203.354 105.249C200.751 102.052 199.06 98.2843 198.275 93.9644C198.236 93.7483 198.285 93.5256 198.412 93.3465C198.539 93.1674 198.733 93.0472 198.95 93.013L207.721 91.6307C208.136 91.5653 208.533 91.826 208.637 92.233C209.703 96.3743 211.897 99.5889 215.223 101.919C218.599 104.229 222.58 105.396 227.2 105.396C230.197 105.396 232.875 104.933 235.246 104.022C237.644 103.08 239.506 101.759 240.865 100.075C242.202 98.4184 242.877 96.4574 242.877 94.1522C242.877 92.7211 242.623 91.5497 242.152 90.6083C242.148 90.5998 242.144 90.5913 242.14 90.5827C241.682 89.5798 241.042 88.742 240.217 88.0596C240.209 88.0531 240.201 88.0465 240.194 88.0397C239.366 87.3005 238.415 86.6756 237.338 86.1668C236.236 85.6463 235.087 85.2171 233.89 84.8796L233.879 84.8765L216.384 79.6803C214.436 79.0961 212.553 78.3656 210.735 77.4889L210.73 77.4865L210.724 77.4837C208.878 76.5605 207.224 75.4202 205.766 74.062L205.762 74.0576L205.759 74.0553C204.281 72.6445 203.109 70.9674 202.242 69.0324L202.24 69.0277C201.358 67.0274 200.931 64.7022 200.931 62.0733C200.931 57.8589 202.02 54.2197 204.235 51.2L204.236 51.1987C206.46 48.1776 209.459 45.8819 213.203 44.3052C216.943 42.7308 221.138 41.9686 225.776 42.001C230.476 42.0334 234.704 42.8765 238.444 44.5489C242.213 46.188 245.339 48.5546 247.807 51.6479C250.313 54.7479 251.984 58.4471 252.833 62.7249C252.876 62.9402 252.83 63.1637 252.706 63.3448C252.582 63.5258 252.39 63.6492 252.174 63.687L243.165 65.2599C242.951 65.2972 242.732 65.2479 242.555 65.1229C242.377 64.9978 242.257 64.8074 242.221 64.5936C241.766 61.9243 240.756 59.6603 239.202 57.7782L239.193 57.7673C237.657 55.8396 235.731 54.3627 233.401 53.3339L233.393 53.3303C231.058 52.269 228.486 51.718 225.666 51.6874L225.665 51.6874C222.962 51.6566 220.546 52.0868 218.404 52.9615C216.256 53.8388 214.58 55.0494 213.344 56.5799L213.339 56.5859C212.126 58.0583 211.523 59.7492 211.523 61.692C211.523 63.6211 212.073 65.1093 213.114 66.2343C214.237 67.416 215.618 68.3701 217.27 69.0918C219.021 69.8106 220.72 70.4027 222.369 70.8694L222.373 70.8705L235.429 74.6348C236.951 75.056 238.689 75.6359 240.641 76.3717C242.684 77.1298 244.654 78.198 246.55 79.5708C248.502 80.9515 250.105 82.795 251.364 85.0811C252.658 87.3972 253.278 90.2773 253.278 93.6755C253.278 97.0912 252.588 100.161 251.186 102.866C249.826 105.553 247.916 107.81 245.466 109.631L245.46 109.635C243.024 111.413 240.203 112.755 237.009 113.668C233.813 114.613 230.399 115.083 226.771 115.083C221.816 115.083 217.32 114.24 213.298 112.54Z" fill="white"/>
<mask id="path-9-inside-1_302_196" fill="white">
<path fill-rule="evenodd" clip-rule="evenodd" d="M-3.68439e-06 78.9988C-3.68439e-06 122.629 35.3685 157.998 78.9988 157.998C122.629 157.998 158 122.629 158 78.9988C158 35.3685 122.629 0 78.9988 0C35.3685 0 -3.68439e-06 35.3685 -3.68439e-06 78.9988Z"/>
</mask>
<path fill-rule="evenodd" clip-rule="evenodd" d="M-3.68439e-06 78.9988C-3.68439e-06 122.629 35.3685 157.998 78.9988 157.998C122.629 157.998 158 122.629 158 78.9988C158 35.3685 122.629 0 78.9988 0C35.3685 0 -3.68439e-06 35.3685 -3.68439e-06 78.9988Z" fill="black" stroke="white" stroke-width="8" mask="url(#path-9-inside-1_302_196)"/>
<path fill-rule="evenodd" clip-rule="evenodd" d="M44.1542 60.3876L46.1043 54.3628C46.5007 53.1374 47.4678 52.1839 48.6977 51.8079L54.752 49.9461C55.59 49.6901 55.5968 48.5078 54.7656 48.2383L48.7385 46.2881C47.5154 45.8918 46.5618 44.9246 46.1836 43.6947L44.324 37.6405C44.0681 36.8047 42.8858 36.7956 42.6162 37.6291L40.6661 43.654C40.2697 44.877 39.3026 45.8306 38.0727 46.2089L32.0184 48.0684C31.1804 48.3266 31.1713 49.5067 32.0048 49.7762L38.0319 51.7263C39.255 52.1227 40.2086 53.0921 40.5868 54.322L42.4464 60.374C42.7023 61.212 43.8846 61.2211 44.1542 60.3876Z" fill="white"/>
<path fill-rule="evenodd" clip-rule="evenodd" d="M139.848 56.881C137.352 54.09 133.457 52.5186 129.67 51.8742C125.853 51.2553 121.85 51.3127 118.082 51.9822C110.457 53.272 103.53 56.4292 97.4881 60.3241C94.3506 62.2356 91.675 64.4474 88.903 66.7C87.5674 67.8392 86.3497 69.0524 85.0815 70.2482L81.6163 73.696C77.851 77.6317 74.1398 81.2165 70.549 84.1878C66.9437 87.1454 63.573 89.3917 60.2512 90.9604C56.9315 92.5372 53.3794 93.4645 48.7495 93.6129C44.1603 93.7748 38.7307 92.9465 32.9229 91.5794C27.0839 90.2183 20.9523 88.2782 14.1004 86.6088C16.4912 93.2414 20.0914 99.1027 24.7137 104.461C29.3902 109.726 35.2297 114.524 42.7314 117.68C50.1247 120.906 59.4157 122.064 68.1031 120.317C76.8135 118.64 84.4573 114.61 90.6359 109.948C96.8304 105.239 101.842 99.8748 106.067 94.298C107.233 92.7572 107.85 91.8949 108.694 90.6906L111.027 87.2351C112.648 85.0977 114.124 82.6641 115.728 80.5464C118.874 76.1112 121.976 71.6811 125.58 67.5997C127.394 65.5296 129.307 63.5495 131.565 61.6466C132.691 60.7178 133.908 59.8088 135.256 58.99C136.624 58.1068 138.069 57.4155 139.848 56.881Z" fill="white"/>
<mask id="path-12-inside-2_302_196" fill="white">
<path fill-rule="evenodd" clip-rule="evenodd" d="M139.848 56.8808C137.167 50.1148 132.182 44.4194 125.491 40.2167C118.841 36.0601 109.605 33.9389 100.452 35.7471C95.9307 36.6216 91.5501 38.3052 87.7059 40.5472C83.8791 42.7803 80.4499 45.4685 77.4812 48.3524C75.9992 49.7992 74.654 51.3084 73.3176 52.8262L69.8538 57.2423L64.5039 64.3512C57.6836 73.4976 50.3391 84.2166 38.2863 87.3927C26.454 90.5108 21.3221 87.7493 14.1004 86.6085C15.4209 90.0176 17.0565 93.3284 19.2739 96.2409C21.45 99.2124 24.0204 102.003 27.216 104.396C28.8309 105.545 30.5359 106.679 32.4295 107.641C34.3146 108.57 36.3474 109.388 38.5172 110.003C42.8332 111.186 47.6923 111.601 52.397 110.964C57.1039 110.336 61.6029 108.845 65.5355 106.864C69.4971 104.901 72.9481 102.511 76.0296 99.9891C82.1551 94.9021 86.9197 89.2815 90.9444 83.6C92.9688 80.7594 94.8064 77.8652 96.5059 74.9702L98.5062 71.5236C99.1177 70.5161 99.7362 69.5024 100.364 68.5584C102.899 64.7654 105.378 61.7241 108.389 59.4413C111.358 57.0995 115.493 55.3693 121.018 54.9674C126.52 54.5606 132.872 55.312 139.848 56.8808Z"/>
</mask>
<path fill-rule="evenodd" clip-rule="evenodd" d="M139.848 56.8808C137.167 50.1148 132.182 44.4194 125.491 40.2167C118.841 36.0601 109.605 33.9389 100.452 35.7471C95.9307 36.6216 91.5501 38.3052 87.7059 40.5472C83.8791 42.7803 80.4499 45.4685 77.4812 48.3524C75.9992 49.7992 74.654 51.3084 73.3176 52.8262L69.8538 57.2423L64.5039 64.3512C57.6836 73.4976 50.3391 84.2166 38.2863 87.3927C26.454 90.5108 21.3221 87.7493 14.1004 86.6085C15.4209 90.0176 17.0565 93.3284 19.2739 96.2409C21.45 99.2124 24.0204 102.003 27.216 104.396C28.8309 105.545 30.5359 106.679 32.4295 107.641C34.3146 108.57 36.3474 109.388 38.5172 110.003C42.8332 111.186 47.6923 111.601 52.397 110.964C57.1039 110.336 61.6029 108.845 65.5355 106.864C69.4971 104.901 72.9481 102.511 76.0296 99.9891C82.1551 94.9021 86.9197 89.2815 90.9444 83.6C92.9688 80.7594 94.8064 77.8652 96.5059 74.9702L98.5062 71.5236C99.1177 70.5161 99.7362 69.5024 100.364 68.5584C102.899 64.7654 105.378 61.7241 108.389 59.4413C111.358 57.0995 115.493 55.3693 121.018 54.9674C126.52 54.5606 132.872 55.312 139.848 56.8808Z" fill="black" stroke="white" stroke-width="4.22939" mask="url(#path-12-inside-2_302_196)"/>
<path fill-rule="evenodd" clip-rule="evenodd" d="M110.081 113.097C110.081 118.067 114.112 122.097 119.081 122.097C124.05 122.097 128.076 118.067 128.076 113.097C128.076 108.128 124.05 104.097 119.081 104.097C114.112 104.097 110.081 108.128 110.081 113.097Z" fill="white"/>
</g>
<defs>
<clipPath id="clip0_302_196">
<rect width="691" height="158" fill="white"/>
</clipPath>
</defs>
</svg>
