<svg width="15" height="15" viewBox="0 0 15 15" fill="none" xmlns="http://www.w3.org/2000/svg">
<g clip-path="url(#clip0_5833_72274)">
<path fill-rule="evenodd" clip-rule="evenodd" d="M8.17147 1.47299C7.78166 0.990774 7.04648 0.990774 6.65667 1.47299L6.11953 2.13745C5.87736 2.43706 5.48131 2.56574 5.10927 2.46571L4.28416 2.24386C3.68536 2.08286 3.09057 2.515 3.05865 3.13424L3.01467 3.98751C2.99484 4.37227 2.75008 4.70915 2.39029 4.8469L1.59236 5.1524C1.0133 5.37412 0.786108 6.07333 1.12427 6.59306L1.59023 7.30926C1.80033 7.63217 1.80033 8.04858 1.59023 8.37152L1.12427 9.08768C0.786108 9.60742 1.0133 10.3066 1.59236 10.5283L2.39029 10.8338C2.75008 10.9716 2.99484 11.3085 3.01467 11.6932L3.05865 12.5465C3.09057 13.1658 3.68536 13.5979 4.28416 13.4369L5.10927 13.215C5.48131 13.115 5.87736 13.2437 6.11953 13.5433L6.65667 14.2078C7.04648 14.69 7.78166 14.69 8.17147 14.2078L8.70858 13.5433C8.95078 13.2437 9.34683 13.115 9.71886 13.215L10.544 13.4369C11.1428 13.5979 11.7375 13.1658 11.7695 12.5465L11.8134 11.6932C11.8333 11.3085 12.078 10.9716 12.4378 10.8338L13.2358 10.5283C13.8148 10.3066 14.042 9.60742 13.7038 9.08768L13.2379 8.37152C13.0278 8.04858 13.0278 7.63217 13.2379 7.30926L13.7038 6.59306C14.042 6.07333 13.8148 5.37412 13.2358 5.1524L12.4378 4.8469C12.078 4.70915 11.8333 4.37227 11.8134 3.98751L11.7695 3.13424C11.7375 2.515 11.1428 2.08286 10.544 2.24386L9.71886 2.46571C9.34683 2.56574 8.95078 2.43706 8.70858 2.13745L8.17147 1.47299ZM10.9729 6.21053L10.086 5.3236L6.62946 8.78011L5.2599 7.41054L4.37297 8.2975L6.62946 10.554L10.9729 6.21053Z" fill="#D0D1D6" fill-opacity="0.8"/>
</g>
<defs>
<clipPath id="clip0_5833_72274">
<rect width="14" height="14" fill="white" transform="translate(0.509766 0.839844)"/>
</clipPath>
</defs>
</svg>
