<svg width="40" height="45" viewBox="0 0 40 45" fill="none" xmlns="http://www.w3.org/2000/svg">
<g clip-path="url(#clip0_5033_23323)">
<path d="M17.6784 1.25982C19.131 0.471559 20.8793 0.45204 22.3492 1.20768L29.2683 4.76471L37.3761 9.14371C38.9925 10.0167 40 11.7059 40 13.5431V22.2353V30.7341C40 32.5333 39.0333 34.1939 37.4686 35.0822L22.4686 43.5984C20.9377 44.4677 19.0624 44.4677 17.5314 43.5984L2.53137 35.0822C0.966714 34.1939 0 32.5334 0 30.7341V22.2353V13.6056C0 11.7355 1.0436 10.0217 2.70508 9.1634L11.2195 4.76471L17.6784 1.25982Z" fill="#D0D1D6" fill-opacity="0.2"/>
<path d="M12.8537 7.74175L12.8606 7.73816L12.8673 7.73443L18.479 4.63253C19.4346 4.10429 20.5916 4.09124 21.5589 4.59779L27.5572 7.73886L34.6398 11.6354C35.6781 12.2067 36.3232 13.2978 36.3232 14.4829V22.2699V29.8839C36.3232 31.0442 35.7046 32.1164 34.7002 32.6973L21.6271 40.2579C20.6205 40.84 19.3796 40.84 18.3729 40.2579L5.29978 32.6973C4.29539 32.1164 3.67684 31.0442 3.67684 29.8839V22.2699V14.5333C3.67684 13.3266 4.34545 12.2192 5.41333 11.6572L12.8537 7.74175Z" fill="url(#paint0_linear_5033_23323)" fill-opacity="0.15" stroke="url(#paint1_linear_5033_23323)" stroke-width="1.5"/>
<mask id="mask0_5033_23323" style="mask-type:alpha" maskUnits="userSpaceOnUse" x="0" y="0" width="41" height="46">
<path d="M20.0001 0.000732528L29.2684 4.76544L40.0001 10.5616L40.0001 22.236L40.0001 33.6457L20.0001 45.0007L0.000121892 33.6457L0.000121952 22.236L0.000122014 10.5616L11.2196 4.76544L20.0001 0.000732528Z" fill="#E1E7EA"/>
</mask>
<g mask="url(#mask0_5033_23323)">
<rect opacity="0.1" width="47.8878" height="22.3042" transform="matrix(0.600773 -0.799419 0.79785 0.602857 5.29169 41.7463)" fill="#191A20"/>
</g>
</g>
<defs>
<linearGradient id="paint0_linear_5033_23323" x1="2.92684" y1="22.5" x2="37.0732" y2="22.5" gradientUnits="userSpaceOnUse">
<stop stop-color="#60EFFF"/>
<stop offset="1" stop-color="#00FF87"/>
</linearGradient>
<linearGradient id="paint1_linear_5033_23323" x1="2.92684" y1="22.5" x2="37.0732" y2="22.5" gradientUnits="userSpaceOnUse">
<stop stop-color="#60EFFF"/>
<stop offset="1" stop-color="#00FF87"/>
</linearGradient>
<clipPath id="clip0_5033_23323">
<rect width="40" height="45" fill="white"/>
</clipPath>
</defs>
</svg>
