<svg width="83" height="20" viewBox="0 0 83 20" fill="none" xmlns="http://www.w3.org/2000/svg">
<rect x="0.25" y="0.25" width="82.5" height="19.5" rx="3.75" fill="url(#paint0_linear_5523_12850)" fill-opacity="0.6"/>
<rect x="0.25" y="0.25" width="82.5" height="19.5" rx="3.75" fill="black" fill-opacity="0.2"/>
<rect x="0.25" y="0.25" width="82.5" height="19.5" rx="3.75" stroke="url(#paint1_linear_5523_12850)" stroke-width="0.5"/>
<path d="M6.76953 14V13.125L9.47656 10.3203C9.76563 10.0156 10.0039 9.7487 10.1914 9.51953C10.3815 9.28776 10.5234 9.06771 10.6172 8.85937C10.7109 8.65104 10.7578 8.42969 10.7578 8.19531C10.7578 7.92969 10.6953 7.70052 10.5703 7.50781C10.4453 7.3125 10.2747 7.16276 10.0586 7.05859C9.84245 6.95182 9.59896 6.89844 9.32812 6.89844C9.04167 6.89844 8.79167 6.95703 8.57812 7.07422C8.36458 7.19141 8.20052 7.35677 8.08594 7.57031C7.97135 7.78385 7.91406 8.03385 7.91406 8.32031H6.76172C6.76172 7.83333 6.8737 7.40755 7.09766 7.04297C7.32161 6.67839 7.62891 6.39583 8.01953 6.19531C8.41016 5.99219 8.85417 5.89062 9.35156 5.89062C9.85417 5.89062 10.2969 5.99089 10.6797 6.19141C11.0651 6.38932 11.3659 6.66016 11.582 7.00391C11.7982 7.34505 11.9062 7.73047 11.9062 8.16016C11.9062 8.45703 11.8503 8.7474 11.7383 9.03125C11.6289 9.3151 11.4375 9.63151 11.1641 9.98047C10.8906 10.3268 10.5104 10.7474 10.0234 11.2422L8.43359 12.9062V12.9648H12.0352V14H6.76953ZM14.9048 6L16.8189 9.12891H16.8814L18.7955 6H20.1939L17.7017 10L20.2095 14H18.8033L16.8814 10.9141H16.8189L14.897 14H13.4908L16.0416 10L13.5064 6H14.9048ZM25.1823 14V6H28.112C28.6797 6 29.1498 6.09375 29.5221 6.28125C29.8945 6.46615 30.1732 6.71745 30.3581 7.03516C30.543 7.35026 30.6354 7.70573 30.6354 8.10156C30.6354 8.4349 30.5742 8.71615 30.4518 8.94531C30.3294 9.17187 30.1654 9.35417 29.9596 9.49219C29.7565 9.6276 29.5326 9.72656 29.2878 9.78906V9.86719C29.5534 9.88021 29.8125 9.96615 30.0651 10.125C30.3203 10.2812 30.5313 10.5039 30.6979 10.793C30.8646 11.082 30.9479 11.4336 30.9479 11.8477C30.9479 12.2565 30.8516 12.6237 30.6589 12.9492C30.4688 13.2721 30.1745 13.5286 29.7761 13.7187C29.3776 13.9062 28.8685 14 28.2487 14H25.1823ZM26.3893 12.9648H28.1315C28.7096 12.9648 29.1237 12.8529 29.3737 12.6289C29.6237 12.4049 29.7487 12.125 29.7487 11.7891C29.7487 11.5365 29.6849 11.3047 29.5573 11.0937C29.4297 10.8828 29.2474 10.7148 29.0104 10.5898C28.7761 10.4648 28.4974 10.4023 28.1745 10.4023H26.3893V12.9648ZM26.3893 9.46094H28.0065C28.2774 9.46094 28.5208 9.40885 28.737 9.30469C28.9557 9.20052 29.1289 9.05469 29.2565 8.86719C29.3867 8.67708 29.4518 8.45312 29.4518 8.19531C29.4518 7.86458 29.336 7.58724 29.1042 7.36328C28.8724 7.13932 28.5169 7.02734 28.0378 7.02734H26.3893V9.46094ZM39.7688 10C39.7688 10.8542 39.6125 11.5885 39.3 12.2031C38.9875 12.8151 38.5592 13.2865 38.0149 13.6172C37.4732 13.9453 36.8573 14.1094 36.1672 14.1094C35.4745 14.1094 34.856 13.9453 34.3118 13.6172C33.7701 13.2865 33.343 12.8138 33.0305 12.1992C32.718 11.5846 32.5618 10.8516 32.5618 10C32.5618 9.14583 32.718 8.41276 33.0305 7.80078C33.343 7.1862 33.7701 6.71484 34.3118 6.38672C34.856 6.05599 35.4745 5.89062 36.1672 5.89062C36.8573 5.89062 37.4732 6.05599 38.0149 6.38672C38.5592 6.71484 38.9875 7.1862 39.3 7.80078C39.6125 8.41276 39.7688 9.14583 39.7688 10ZM38.5735 10C38.5735 9.34896 38.468 8.80078 38.2571 8.35547C38.0487 7.90755 37.7623 7.56901 37.3977 7.33984C37.0357 7.10807 36.6256 6.99219 36.1672 6.99219C35.7063 6.99219 35.2948 7.10807 34.9329 7.33984C34.5709 7.56901 34.2844 7.90755 34.0735 8.35547C33.8651 8.80078 33.761 9.34896 33.761 10C33.761 10.651 33.8651 11.2005 34.0735 11.6484C34.2844 12.0937 34.5709 12.4323 34.9329 12.6641C35.2948 12.8932 35.7063 13.0078 36.1672 13.0078C36.6256 13.0078 37.0357 12.8932 37.3977 12.6641C37.7623 12.4323 38.0487 12.0937 38.2571 11.6484C38.468 11.2005 38.5735 10.651 38.5735 10ZM48.6629 10C48.6629 10.8542 48.5066 11.5885 48.1941 12.2031C47.8816 12.8151 47.4533 13.2865 46.909 13.6172C46.3673 13.9453 45.7514 14.1094 45.0613 14.1094C44.3686 14.1094 43.7501 13.9453 43.2059 13.6172C42.6642 13.2865 42.2371 12.8138 41.9246 12.1992C41.6121 11.5846 41.4559 10.8516 41.4559 10C41.4559 9.14583 41.6121 8.41276 41.9246 7.80078C42.2371 7.1862 42.6642 6.71484 43.2059 6.38672C43.7501 6.05599 44.3686 5.89062 45.0613 5.89062C45.7514 5.89062 46.3673 6.05599 46.909 6.38672C47.4533 6.71484 47.8816 7.1862 48.1941 7.80078C48.5066 8.41276 48.6629 9.14583 48.6629 10ZM47.4676 10C47.4676 9.34896 47.3621 8.80078 47.1512 8.35547C46.9428 7.90755 46.6564 7.56901 46.2918 7.33984C45.9298 7.10807 45.5197 6.99219 45.0613 6.99219C44.6004 6.99219 44.1889 7.10807 43.827 7.33984C43.465 7.56901 43.1785 7.90755 42.9676 8.35547C42.7592 8.80078 42.6551 9.34896 42.6551 10C42.6551 10.651 42.7592 11.2005 42.9676 11.6484C43.1785 12.0937 43.465 12.4323 43.827 12.6641C44.1889 12.8932 44.6004 13.0078 45.0613 13.0078C45.5197 13.0078 45.9298 12.8932 46.2918 12.6641C46.6564 12.4323 46.9428 12.0937 47.1512 11.6484C47.3621 11.2005 47.4676 10.651 47.4676 10ZM54.9711 8.10156C54.9294 7.73177 54.7575 7.44531 54.4554 7.24219C54.1533 7.03646 53.7731 6.93359 53.3148 6.93359C52.9867 6.93359 52.7028 6.98568 52.4632 7.08984C52.2237 7.19141 52.0375 7.33203 51.9046 7.51172C51.7744 7.6888 51.7093 7.89062 51.7093 8.11719C51.7093 8.30729 51.7536 8.47135 51.8421 8.60937C51.9333 8.7474 52.0518 8.86328 52.1976 8.95703C52.3461 9.04818 52.5049 9.125 52.6742 9.1875C52.8434 9.2474 53.0062 9.29687 53.1625 9.33594L53.9437 9.53906C54.1989 9.60156 54.4606 9.6862 54.7289 9.79297C54.9971 9.89974 55.2458 10.0404 55.475 10.2148C55.7041 10.3893 55.889 10.6055 56.0296 10.8633C56.1729 11.1211 56.2445 11.4297 56.2445 11.7891C56.2445 12.2422 56.1273 12.6445 55.8929 12.9961C55.6612 13.3477 55.3239 13.625 54.8812 13.8281C54.4411 14.0313 53.9086 14.1328 53.2836 14.1328C52.6846 14.1328 52.1664 14.0378 51.7289 13.8477C51.2914 13.6576 50.9489 13.388 50.7015 13.0391C50.4541 12.6875 50.3174 12.2708 50.2914 11.7891H51.5023C51.5257 12.0781 51.6195 12.319 51.7836 12.5117C51.9502 12.7018 52.1625 12.8437 52.4203 12.9375C52.6807 13.0286 52.9658 13.0742 53.2757 13.0742C53.6169 13.0742 53.9203 13.0208 54.1859 12.9141C54.4541 12.8047 54.6651 12.6536 54.8187 12.4609C54.9724 12.2656 55.0492 12.0378 55.0492 11.7773C55.0492 11.5404 54.9815 11.3464 54.8461 11.1953C54.7132 11.0443 54.5323 10.9193 54.3031 10.8203C54.0765 10.7214 53.82 10.6341 53.5336 10.5586L52.5882 10.3008C51.9476 10.1263 51.4398 9.86979 51.0648 9.53125C50.6924 9.19271 50.5062 8.74479 50.5062 8.1875C50.5062 7.72656 50.6312 7.32422 50.8812 6.98047C51.1312 6.63672 51.4698 6.36979 51.8968 6.17969C52.3239 5.98698 52.8057 5.89062 53.3421 5.89062C53.8838 5.89062 54.3617 5.98568 54.7757 6.17578C55.1924 6.36589 55.5205 6.6276 55.7601 6.96094C55.9997 7.29167 56.1247 7.67187 56.1351 8.10156H54.9711ZM57.7323 7.03906V6H63.9238V7.03906H61.4277V14H60.2245V7.03906H57.7323Z" fill="#EBECF0"/>
<path d="M73 14.95C72.3237 14.95 71.663 14.7467 71.1036 14.3667C70.5442 13.9866 70.1119 13.4473 69.8627 12.8186C69.6135 12.1899 69.559 11.5009 69.7061 10.8408C69.8532 10.1807 70.1953 9.58003 70.6879 9.11667C71.2918 8.54832 72.775 7.52502 72.55 5.27502C75.25 7.07502 76.6 8.87502 73.9 11.575C74.35 11.575 75.025 11.575 76.15 10.4635C76.2715 10.8114 76.375 11.1853 76.375 11.575C76.375 12.4701 76.0194 13.3286 75.3864 13.9615C74.7535 14.5944 73.8951 14.95 73 14.95Z" fill="white" fill-opacity="0.8"/>
<defs>
<linearGradient id="paint0_linear_5523_12850" x1="0" y1="10" x2="83" y2="10" gradientUnits="userSpaceOnUse">
<stop stop-color="#AB4883"/>
<stop offset="1" stop-color="#8785FF"/>
</linearGradient>
<linearGradient id="paint1_linear_5523_12850" x1="0" y1="10" x2="83" y2="10" gradientUnits="userSpaceOnUse">
<stop stop-color="#AB4883"/>
<stop offset="1" stop-color="#8785FF"/>
</linearGradient>
</defs>
</svg>
