<svg width="83" height="20" viewBox="0 0 83 20" fill="none" xmlns="http://www.w3.org/2000/svg">
<rect x="0.25" y="0.25" width="82.5" height="19.5" rx="3.75" fill="url(#paint0_linear_5523_44498)" fill-opacity="0.4"/>
<rect x="0.25" y="0.25" width="82.5" height="19.5" rx="3.75" fill="black" fill-opacity="0.2"/>
<rect x="0.25" y="0.25" width="82.5" height="19.5" rx="3.75" stroke="url(#paint1_angular_5523_44498)" stroke-width="0.5"/>
<path d="M9.5625 14.1094C9.20573 14.1042 8.85417 14.0391 8.50781 13.9141C8.16406 13.7891 7.85156 13.5807 7.57031 13.2891C7.28906 12.9974 7.0638 12.6055 6.89453 12.1133C6.72786 11.6211 6.64453 11.0065 6.64453 10.2695C6.64453 9.57161 6.71354 8.95182 6.85156 8.41016C6.99219 7.86849 7.19401 7.41146 7.45703 7.03906C7.72005 6.66406 8.03776 6.37891 8.41016 6.18359C8.78255 5.98828 9.20052 5.89062 9.66406 5.89062C10.1406 5.89062 10.5638 5.98437 10.9336 6.17187C11.3034 6.35937 11.6029 6.61849 11.832 6.94922C12.0638 7.27995 12.2109 7.65625 12.2734 8.07812H11.082C11.0013 7.74479 10.8411 7.47266 10.6016 7.26172C10.362 7.05078 10.0495 6.94531 9.66406 6.94531C9.07813 6.94531 8.62109 7.20052 8.29297 7.71094C7.96745 8.22135 7.80339 8.93099 7.80078 9.83984H7.85938C7.9974 9.61328 8.16667 9.42057 8.36719 9.26172C8.57031 9.10026 8.79688 8.97656 9.04688 8.89062C9.29948 8.80208 9.5651 8.75781 9.84375 8.75781C10.3073 8.75781 10.7266 8.87109 11.1016 9.09766C11.4792 9.32161 11.7799 9.63151 12.0039 10.0273C12.2279 10.4232 12.3398 10.8763 12.3398 11.3867C12.3398 11.8971 12.224 12.3594 11.9922 12.7734C11.763 13.1875 11.4401 13.5156 11.0234 13.7578C10.6068 13.9974 10.1198 14.1146 9.5625 14.1094ZM9.55859 13.0937C9.86589 13.0937 10.1406 13.0182 10.3828 12.8672C10.625 12.7161 10.8164 12.513 10.957 12.2578C11.0977 12.0026 11.168 11.7174 11.168 11.4023C11.168 11.0951 11.099 10.8151 10.9609 10.5625C10.8255 10.3099 10.638 10.1094 10.3984 9.96094C10.1615 9.8125 9.89063 9.73828 9.58594 9.73828C9.35417 9.73828 9.13932 9.78255 8.94141 9.87109C8.74609 9.95964 8.57422 10.082 8.42578 10.2383C8.27734 10.3945 8.16016 10.5742 8.07422 10.7773C7.99089 10.9779 7.94922 11.1901 7.94922 11.4141C7.94922 11.7135 8.01823 11.9909 8.15625 12.2461C8.29688 12.5013 8.48828 12.707 8.73047 12.8633C8.97526 13.0169 9.2513 13.0937 9.55859 13.0937ZM15.1519 6L17.066 9.12891H17.1285L19.0425 6H20.441L17.9488 10L20.4566 14H19.0504L17.1285 10.9141H17.066L15.1441 14H13.7379L16.2886 10L13.7535 6H15.1519ZM25.4294 14V6H28.3591C28.9268 6 29.3968 6.09375 29.7692 6.28125C30.1416 6.46615 30.4203 6.71745 30.6052 7.03516C30.7901 7.35026 30.8825 7.70573 30.8825 8.10156C30.8825 8.4349 30.8213 8.71615 30.6989 8.94531C30.5765 9.17187 30.4124 9.35417 30.2067 9.49219C30.0036 9.6276 29.7796 9.72656 29.5348 9.78906V9.86719C29.8005 9.88021 30.0596 9.96615 30.3122 10.125C30.5674 10.2812 30.7783 10.5039 30.945 10.793C31.1117 11.082 31.195 11.4336 31.195 11.8477C31.195 12.2565 31.0986 12.6237 30.9059 12.9492C30.7158 13.2721 30.4216 13.5286 30.0231 13.7187C29.6247 13.9062 29.1156 14 28.4958 14H25.4294ZM26.6364 12.9648H28.3786C28.9567 12.9648 29.3708 12.8529 29.6208 12.6289C29.8708 12.4049 29.9958 12.125 29.9958 11.7891C29.9958 11.5365 29.932 11.3047 29.8044 11.0937C29.6768 10.8828 29.4945 10.7148 29.2575 10.5898C29.0231 10.4648 28.7445 10.4023 28.4216 10.4023H26.6364V12.9648ZM26.6364 9.46094H28.2536C28.5244 9.46094 28.7679 9.40885 28.9841 9.30469C29.2028 9.20052 29.376 9.05469 29.5036 8.86719C29.6338 8.67708 29.6989 8.45312 29.6989 8.19531C29.6989 7.86458 29.583 7.58724 29.3512 7.36328C29.1195 7.13932 28.764 7.02734 28.2848 7.02734H26.6364V9.46094ZM40.0159 10C40.0159 10.8542 39.8596 11.5885 39.5471 12.2031C39.2346 12.8151 38.8062 13.2865 38.262 13.6172C37.7203 13.9453 37.1044 14.1094 36.4143 14.1094C35.7216 14.1094 35.1031 13.9453 34.5588 13.6172C34.0172 13.2865 33.5901 12.8138 33.2776 12.1992C32.9651 11.5846 32.8088 10.8516 32.8088 10C32.8088 9.14583 32.9651 8.41276 33.2776 7.80078C33.5901 7.1862 34.0172 6.71484 34.5588 6.38672C35.1031 6.05599 35.7216 5.89062 36.4143 5.89062C37.1044 5.89062 37.7203 6.05599 38.262 6.38672C38.8062 6.71484 39.2346 7.1862 39.5471 7.80078C39.8596 8.41276 40.0159 9.14583 40.0159 10ZM38.8205 10C38.8205 9.34896 38.7151 8.80078 38.5041 8.35547C38.2958 7.90755 38.0093 7.56901 37.6448 7.33984C37.2828 7.10807 36.8726 6.99219 36.4143 6.99219C35.9534 6.99219 35.5419 7.10807 35.1799 7.33984C34.8179 7.56901 34.5315 7.90755 34.3205 8.35547C34.1122 8.80078 34.008 9.34896 34.008 10C34.008 10.651 34.1122 11.2005 34.3205 11.6484C34.5315 12.0937 34.8179 12.4323 35.1799 12.6641C35.5419 12.8932 35.9534 13.0078 36.4143 13.0078C36.8726 13.0078 37.2828 12.8932 37.6448 12.6641C38.0093 12.4323 38.2958 12.0937 38.5041 11.6484C38.7151 11.2005 38.8205 10.651 38.8205 10ZM48.91 10C48.91 10.8542 48.7537 11.5885 48.4412 12.2031C48.1287 12.8151 47.7003 13.2865 47.1561 13.6172C46.6144 13.9453 45.9985 14.1094 45.3084 14.1094C44.6157 14.1094 43.9972 13.9453 43.4529 13.6172C42.9113 13.2865 42.4842 12.8138 42.1717 12.1992C41.8592 11.5846 41.7029 10.8516 41.7029 10C41.7029 9.14583 41.8592 8.41276 42.1717 7.80078C42.4842 7.1862 42.9113 6.71484 43.4529 6.38672C43.9972 6.05599 44.6157 5.89062 45.3084 5.89062C45.9985 5.89062 46.6144 6.05599 47.1561 6.38672C47.7003 6.71484 48.1287 7.1862 48.4412 7.80078C48.7537 8.41276 48.91 9.14583 48.91 10ZM47.7146 10C47.7146 9.34896 47.6092 8.80078 47.3982 8.35547C47.1899 7.90755 46.9035 7.56901 46.5389 7.33984C46.1769 7.10807 45.7667 6.99219 45.3084 6.99219C44.8475 6.99219 44.436 7.10807 44.074 7.33984C43.712 7.56901 43.4256 7.90755 43.2146 8.35547C43.0063 8.80078 42.9021 9.34896 42.9021 10C42.9021 10.651 43.0063 11.2005 43.2146 11.6484C43.4256 12.0937 43.712 12.4323 44.074 12.6641C44.436 12.8932 44.8475 13.0078 45.3084 13.0078C45.7667 13.0078 46.1769 12.8932 46.5389 12.6641C46.9035 12.4323 47.1899 12.0937 47.3982 11.6484C47.6092 11.2005 47.7146 10.651 47.7146 10ZM55.2181 8.10156C55.1765 7.73177 55.0046 7.44531 54.7025 7.24219C54.4004 7.03646 54.0202 6.93359 53.5619 6.93359C53.2337 6.93359 52.9499 6.98568 52.7103 7.08984C52.4707 7.19141 52.2845 7.33203 52.1517 7.51172C52.0215 7.6888 51.9564 7.89062 51.9564 8.11719C51.9564 8.30729 52.0007 8.47135 52.0892 8.60937C52.1804 8.7474 52.2989 8.86328 52.4447 8.95703C52.5931 9.04818 52.752 9.125 52.9212 9.1875C53.0905 9.2474 53.2533 9.29687 53.4095 9.33594L54.1908 9.53906C54.446 9.60156 54.7077 9.6862 54.9759 9.79297C55.2442 9.89974 55.4929 10.0404 55.722 10.2148C55.9512 10.3893 56.1361 10.6055 56.2767 10.8633C56.4199 11.1211 56.4916 11.4297 56.4916 11.7891C56.4916 12.2422 56.3744 12.6445 56.14 12.9961C55.9082 13.3477 55.571 13.625 55.1283 13.8281C54.6882 14.0313 54.1556 14.1328 53.5306 14.1328C52.9317 14.1328 52.4134 14.0378 51.9759 13.8477C51.5384 13.6576 51.196 13.388 50.9486 13.0391C50.7012 12.6875 50.5645 12.2708 50.5384 11.7891H51.7494C51.7728 12.0781 51.8666 12.319 52.0306 12.5117C52.1973 12.7018 52.4095 12.8437 52.6673 12.9375C52.9278 13.0286 53.2129 13.0742 53.5228 13.0742C53.864 13.0742 54.1673 13.0208 54.433 12.9141C54.7012 12.8047 54.9121 12.6536 55.0658 12.4609C55.2194 12.2656 55.2962 12.0378 55.2962 11.7773C55.2962 11.5404 55.2285 11.3464 55.0931 11.1953C54.9603 11.0443 54.7793 10.9193 54.5502 10.8203C54.3236 10.7214 54.0671 10.6341 53.7806 10.5586L52.8353 10.3008C52.1947 10.1263 51.6869 9.86979 51.3119 9.53125C50.9395 9.19271 50.7533 8.74479 50.7533 8.1875C50.7533 7.72656 50.8783 7.32422 51.1283 6.98047C51.3783 6.63672 51.7168 6.36979 52.1439 6.17969C52.571 5.98698 53.0528 5.89062 53.5892 5.89062C54.1309 5.89062 54.6087 5.98568 55.0228 6.17578C55.4395 6.36589 55.7676 6.6276 56.0072 6.96094C56.2468 7.29167 56.3718 7.67187 56.3822 8.10156H55.2181ZM57.9794 7.03906V6H64.1708V7.03906H61.6747V14H60.4716V7.03906H57.9794Z" fill="#EBECF0"/>
<path d="M73 14.95C72.3237 14.95 71.663 14.7467 71.1036 14.3667C70.5442 13.9866 70.1119 13.4473 69.8627 12.8186C69.6135 12.1899 69.559 11.5009 69.7061 10.8408C69.8532 10.1807 70.1953 9.58003 70.6879 9.11667C71.2918 8.54832 72.775 7.52502 72.55 5.27502C75.25 7.07502 76.6 8.87502 73.9 11.575C74.35 11.575 75.025 11.575 76.15 10.4635C76.2715 10.8114 76.375 11.1853 76.375 11.575C76.375 12.4701 76.0194 13.3286 75.3864 13.9615C74.7535 14.5944 73.8951 14.95 73 14.95Z" fill="white" fill-opacity="0.8"/>
<defs>
<linearGradient id="paint0_linear_5523_44498" x1="41.5" y1="0" x2="41.5" y2="20" gradientUnits="userSpaceOnUse">
<stop stop-color="#E3D026"/>
<stop offset="1" stop-color="#B1A31F"/>
</linearGradient>
<radialGradient id="paint1_angular_5523_44498" cx="0" cy="0" r="1" gradientUnits="userSpaceOnUse" gradientTransform="translate(40.255 10) rotate(90) scale(10 40.255)">
<stop offset="0.0729167" stop-color="#E1B950"/>
<stop offset="0.244792" stop-color="#F6F3A6"/>
<stop offset="0.355" stop-color="#675102"/>
<stop offset="0.434957" stop-color="#F6F3A6"/>
<stop offset="0.494792" stop-color="#EDCC7D"/>
<stop offset="0.532623" stop-color="#E1B950"/>
<stop offset="0.593311" stop-color="#675102"/>
<stop offset="0.708863" stop-color="#EDCC7D"/>
<stop offset="0.773898" stop-color="#E1B950"/>
<stop offset="0.921875" stop-color="#675102"/>
</radialGradient>
</defs>
</svg>
