<svg width="83" height="20" viewBox="0 0 83 20" fill="none" xmlns="http://www.w3.org/2000/svg">
<rect x="0.25" y="0.25" width="82.5" height="19.5" rx="3.75" fill="url(#paint0_linear_5523_44495)" fill-opacity="0.4"/>
<rect x="0.25" y="0.25" width="82.5" height="19.5" rx="3.75" stroke="url(#paint1_linear_5523_44495)" stroke-width="0.5"/>
<path d="M9.41016 14.1094C8.92057 14.1094 8.48047 14.0156 8.08984 13.8281C7.70182 13.638 7.39193 13.3776 7.16016 13.0469C6.92839 12.7161 6.80469 12.3385 6.78906 11.9141H7.96094C7.98958 12.2578 8.14193 12.5404 8.41797 12.7617C8.69401 12.9831 9.02474 13.0937 9.41016 13.0937C9.71745 13.0937 9.98958 13.0234 10.2266 12.8828C10.4661 12.7396 10.6536 12.543 10.7891 12.293C10.9271 12.043 10.9961 11.7578 10.9961 11.4375C10.9961 11.112 10.9258 10.8216 10.7852 10.5664C10.6445 10.3112 10.4505 10.1107 10.2031 9.96484C9.95833 9.81901 9.67708 9.74479 9.35938 9.74219C9.11719 9.74219 8.8737 9.78385 8.62891 9.86719C8.38411 9.95052 8.1862 10.0599 8.03516 10.1953L6.92969 10.0312L7.37891 6H11.7773V7.03516H8.38281L8.12891 9.27344H8.17578C8.33203 9.1224 8.53906 8.99609 8.79688 8.89453C9.05729 8.79297 9.33594 8.74219 9.63281 8.74219C10.1198 8.74219 10.5534 8.85807 10.9336 9.08984C11.3164 9.32161 11.6172 9.63802 11.8359 10.0391C12.0573 10.4375 12.1667 10.8958 12.1641 11.4141C12.1667 11.9323 12.0495 12.3945 11.8125 12.8008C11.5781 13.207 11.2526 13.5273 10.8359 13.7617C10.4219 13.9935 9.94661 14.1094 9.41016 14.1094ZM14.98 6L16.8941 9.12891H16.9566L18.8707 6H20.2691L17.7769 10L20.2847 14H18.8785L16.9566 10.9141H16.8941L14.9722 14H13.566L16.1168 10L13.5816 6H14.98ZM25.2575 14V6H28.1872C28.7549 6 29.2249 6.09375 29.5973 6.28125C29.9697 6.46615 30.2484 6.71745 30.4333 7.03516C30.6182 7.35026 30.7106 7.70573 30.7106 8.10156C30.7106 8.4349 30.6494 8.71615 30.527 8.94531C30.4046 9.17187 30.2406 9.35417 30.0348 9.49219C29.8317 9.6276 29.6078 9.72656 29.363 9.78906V9.86719C29.6286 9.88021 29.8877 9.96615 30.1403 10.125C30.3955 10.2812 30.6065 10.5039 30.7731 10.793C30.9398 11.082 31.0231 11.4336 31.0231 11.8477C31.0231 12.2565 30.9268 12.6237 30.7341 12.9492C30.544 13.2721 30.2497 13.5286 29.8512 13.7187C29.4528 13.9062 28.9437 14 28.3239 14H25.2575ZM26.4645 12.9648H28.2067C28.7848 12.9648 29.1989 12.8529 29.4489 12.6289C29.6989 12.4049 29.8239 12.125 29.8239 11.7891C29.8239 11.5365 29.7601 11.3047 29.6325 11.0937C29.5049 10.8828 29.3226 10.7148 29.0856 10.5898C28.8512 10.4648 28.5726 10.4023 28.2497 10.4023H26.4645V12.9648ZM26.4645 9.46094H28.0817C28.3526 9.46094 28.596 9.40885 28.8122 9.30469C29.0309 9.20052 29.2041 9.05469 29.3317 8.86719C29.4619 8.67708 29.527 8.45312 29.527 8.19531C29.527 7.86458 29.4111 7.58724 29.1794 7.36328C28.9476 7.13932 28.5921 7.02734 28.113 7.02734H26.4645V9.46094ZM39.844 10C39.844 10.8542 39.6877 11.5885 39.3752 12.2031C39.0627 12.8151 38.6343 13.2865 38.0901 13.6172C37.5484 13.9453 36.9325 14.1094 36.2424 14.1094C35.5497 14.1094 34.9312 13.9453 34.387 13.6172C33.8453 13.2865 33.4182 12.8138 33.1057 12.1992C32.7932 11.5846 32.637 10.8516 32.637 10C32.637 9.14583 32.7932 8.41276 33.1057 7.80078C33.4182 7.1862 33.8453 6.71484 34.387 6.38672C34.9312 6.05599 35.5497 5.89062 36.2424 5.89062C36.9325 5.89062 37.5484 6.05599 38.0901 6.38672C38.6343 6.71484 39.0627 7.1862 39.3752 7.80078C39.6877 8.41276 39.844 9.14583 39.844 10ZM38.6487 10C38.6487 9.34896 38.5432 8.80078 38.3323 8.35547C38.1239 7.90755 37.8375 7.56901 37.4729 7.33984C37.1109 7.10807 36.7008 6.99219 36.2424 6.99219C35.7815 6.99219 35.37 7.10807 35.008 7.33984C34.6461 7.56901 34.3596 7.90755 34.1487 8.35547C33.9403 8.80078 33.8362 9.34896 33.8362 10C33.8362 10.651 33.9403 11.2005 34.1487 11.6484C34.3596 12.0937 34.6461 12.4323 35.008 12.6641C35.37 12.8932 35.7815 13.0078 36.2424 13.0078C36.7008 13.0078 37.1109 12.8932 37.4729 12.6641C37.8375 12.4323 38.1239 12.0937 38.3323 11.6484C38.5432 11.2005 38.6487 10.651 38.6487 10ZM48.7381 10C48.7381 10.8542 48.5818 11.5885 48.2693 12.2031C47.9568 12.8151 47.5285 13.2865 46.9842 13.6172C46.4425 13.9453 45.8266 14.1094 45.1365 14.1094C44.4438 14.1094 43.8253 13.9453 43.2811 13.6172C42.7394 13.2865 42.3123 12.8138 41.9998 12.1992C41.6873 11.5846 41.5311 10.8516 41.5311 10C41.5311 9.14583 41.6873 8.41276 41.9998 7.80078C42.3123 7.1862 42.7394 6.71484 43.2811 6.38672C43.8253 6.05599 44.4438 5.89062 45.1365 5.89062C45.8266 5.89062 46.4425 6.05599 46.9842 6.38672C47.5285 6.71484 47.9568 7.1862 48.2693 7.80078C48.5818 8.41276 48.7381 9.14583 48.7381 10ZM47.5428 10C47.5428 9.34896 47.4373 8.80078 47.2264 8.35547C47.018 7.90755 46.7316 7.56901 46.367 7.33984C46.005 7.10807 45.5949 6.99219 45.1365 6.99219C44.6756 6.99219 44.2641 7.10807 43.9021 7.33984C43.5402 7.56901 43.2537 7.90755 43.0428 8.35547C42.8344 8.80078 42.7303 9.34896 42.7303 10C42.7303 10.651 42.8344 11.2005 43.0428 11.6484C43.2537 12.0937 43.5402 12.4323 43.9021 12.6641C44.2641 12.8932 44.6756 13.0078 45.1365 13.0078C45.5949 13.0078 46.005 12.8932 46.367 12.6641C46.7316 12.4323 47.018 12.0937 47.2264 11.6484C47.4373 11.2005 47.5428 10.651 47.5428 10ZM55.0462 8.10156C55.0046 7.73177 54.8327 7.44531 54.5306 7.24219C54.2285 7.03646 53.8483 6.93359 53.39 6.93359C53.0619 6.93359 52.778 6.98568 52.5384 7.08984C52.2989 7.19141 52.1127 7.33203 51.9798 7.51172C51.8496 7.6888 51.7845 7.89062 51.7845 8.11719C51.7845 8.30729 51.8288 8.47135 51.9173 8.60937C52.0085 8.7474 52.127 8.86328 52.2728 8.95703C52.4212 9.04818 52.5801 9.125 52.7494 9.1875C52.9186 9.2474 53.0814 9.29687 53.2377 9.33594L54.0189 9.53906C54.2741 9.60156 54.5358 9.6862 54.8041 9.79297C55.0723 9.89974 55.321 10.0404 55.5502 10.2148C55.7793 10.3893 55.9642 10.6055 56.1048 10.8633C56.2481 11.1211 56.3197 11.4297 56.3197 11.7891C56.3197 12.2422 56.2025 12.6445 55.9681 12.9961C55.7364 13.3477 55.3991 13.625 54.9564 13.8281C54.5163 14.0313 53.9837 14.1328 53.3587 14.1328C52.7598 14.1328 52.2416 14.0378 51.8041 13.8477C51.3666 13.6576 51.0241 13.388 50.7767 13.0391C50.5293 12.6875 50.3926 12.2708 50.3666 11.7891H51.5775C51.6009 12.0781 51.6947 12.319 51.8587 12.5117C52.0254 12.7018 52.2377 12.8437 52.4955 12.9375C52.7559 13.0286 53.041 13.0742 53.3509 13.0742C53.6921 13.0742 53.9955 13.0208 54.2611 12.9141C54.5293 12.8047 54.7403 12.6536 54.8939 12.4609C55.0476 12.2656 55.1244 12.0378 55.1244 11.7773C55.1244 11.5404 55.0567 11.3464 54.9212 11.1953C54.7884 11.0443 54.6074 10.9193 54.3783 10.8203C54.1517 10.7214 53.8952 10.6341 53.6087 10.5586L52.6634 10.3008C52.0228 10.1263 51.515 9.86979 51.14 9.53125C50.7676 9.19271 50.5814 8.74479 50.5814 8.1875C50.5814 7.72656 50.7064 7.32422 50.9564 6.98047C51.2064 6.63672 51.5449 6.36979 51.972 6.17969C52.3991 5.98698 52.8809 5.89062 53.4173 5.89062C53.959 5.89062 54.4369 5.98568 54.8509 6.17578C55.2676 6.36589 55.5957 6.6276 55.8353 6.96094C56.0749 7.29167 56.1999 7.67187 56.2103 8.10156H55.0462ZM57.8075 7.03906V6H63.9989V7.03906H61.5029V14H60.2997V7.03906H57.8075Z" fill="#EBECF0"/>
<path d="M73 14.95C72.3237 14.95 71.663 14.7467 71.1036 14.3667C70.5442 13.9866 70.1119 13.4473 69.8627 12.8186C69.6135 12.1899 69.559 11.5009 69.7061 10.8408C69.8532 10.1807 70.1953 9.58003 70.6879 9.11667C71.2918 8.54832 72.775 7.52502 72.55 5.27502C75.25 7.07502 76.6 8.87502 73.9 11.575C74.35 11.575 75.025 11.575 76.15 10.4635C76.2715 10.8114 76.375 11.1853 76.375 11.575C76.375 12.4701 76.0194 13.3286 75.3864 13.9615C74.7535 14.5944 73.8951 14.95 73 14.95Z" fill="white" fill-opacity="0.8"/>
<defs>
<linearGradient id="paint0_linear_5523_44495" x1="-2.14893e-07" y1="6" x2="83" y2="17" gradientUnits="userSpaceOnUse">
<stop stop-color="#62F09C"/>
<stop offset="0.215" stop-color="#B8D253"/>
<stop offset="0.495" stop-color="#EEAA3E"/>
<stop offset="0.745" stop-color="#FF7D63"/>
<stop offset="1" stop-color="#FD609C"/>
</linearGradient>
<linearGradient id="paint1_linear_5523_44495" x1="-2.14893e-07" y1="6" x2="83" y2="17" gradientUnits="userSpaceOnUse">
<stop stop-color="#62F09C"/>
<stop offset="0.215" stop-color="#B8D253"/>
<stop offset="0.495" stop-color="#EEAA3E"/>
<stop offset="0.745" stop-color="#FF7D63"/>
<stop offset="1" stop-color="#FD609C"/>
</linearGradient>
</defs>
</svg>
