<svg width="83" height="20" viewBox="0 0 83 20" fill="none" xmlns="http://www.w3.org/2000/svg">
<rect x="0.25" y="0.25" width="82.5" height="19.5" rx="3.75" fill="url(#paint0_radial_5523_44522)" fill-opacity="0.5"/>
<rect x="0.25" y="0.25" width="82.5" height="19.5" rx="3.75" stroke="url(#paint1_radial_5523_44522)" stroke-width="0.5"/>
<path d="M6.60156 12.4375V11.4609L10.0586 6H10.8281V7.4375H10.3398L7.86719 11.3516V11.4141H12.6055V12.4375H6.60156ZM10.3945 14V12.1406L10.4023 11.6953V6H11.5469V14H10.3945ZM15.356 6L17.2701 9.12891H17.3326L19.2466 6H20.6451L18.1529 10L20.6607 14H19.2545L17.3326 10.9141H17.2701L15.3482 14H13.942L16.4927 10L13.9576 6H15.356ZM25.6335 14V6H28.5632C29.1309 6 29.6009 6.09375 29.9733 6.28125C30.3457 6.46615 30.6244 6.71745 30.8093 7.03516C30.9942 7.35026 31.0866 7.70573 31.0866 8.10156C31.0866 8.4349 31.0254 8.71615 30.903 8.94531C30.7806 9.17187 30.6165 9.35417 30.4108 9.49219C30.2077 9.6276 29.9837 9.72656 29.7389 9.78906V9.86719C30.0046 9.88021 30.2637 9.96615 30.5163 10.125C30.7715 10.2812 30.9824 10.5039 31.1491 10.793C31.3158 11.082 31.3991 11.4336 31.3991 11.8477C31.3991 12.2565 31.3027 12.6237 31.11 12.9492C30.9199 13.2721 30.6257 13.5286 30.2272 13.7187C29.8288 13.9062 29.3197 14 28.6999 14H25.6335ZM26.8405 12.9648H28.5827C29.1608 12.9648 29.5749 12.8529 29.8249 12.6289C30.0749 12.4049 30.1999 12.125 30.1999 11.7891C30.1999 11.5365 30.1361 11.3047 30.0085 11.0937C29.8809 10.8828 29.6986 10.7148 29.4616 10.5898C29.2272 10.4648 28.9486 10.4023 28.6257 10.4023H26.8405V12.9648ZM26.8405 9.46094H28.4577C28.7285 9.46094 28.972 9.40885 29.1882 9.30469C29.4069 9.20052 29.5801 9.05469 29.7077 8.86719C29.8379 8.67708 29.903 8.45312 29.903 8.19531C29.903 7.86458 29.7871 7.58724 29.5554 7.36328C29.3236 7.13932 28.9681 7.02734 28.4889 7.02734H26.8405V9.46094ZM40.22 10C40.22 10.8542 40.0637 11.5885 39.7512 12.2031C39.4387 12.8151 39.0103 13.2865 38.4661 13.6172C37.9244 13.9453 37.3085 14.1094 36.6184 14.1094C35.9257 14.1094 35.3072 13.9453 34.7629 13.6172C34.2213 13.2865 33.7942 12.8138 33.4817 12.1992C33.1692 11.5846 33.0129 10.8516 33.0129 10C33.0129 9.14583 33.1692 8.41276 33.4817 7.80078C33.7942 7.1862 34.2213 6.71484 34.7629 6.38672C35.3072 6.05599 35.9257 5.89062 36.6184 5.89062C37.3085 5.89062 37.9244 6.05599 38.4661 6.38672C39.0103 6.71484 39.4387 7.1862 39.7512 7.80078C40.0637 8.41276 40.22 9.14583 40.22 10ZM39.0246 10C39.0246 9.34896 38.9192 8.80078 38.7082 8.35547C38.4999 7.90755 38.2135 7.56901 37.8489 7.33984C37.4869 7.10807 37.0767 6.99219 36.6184 6.99219C36.1575 6.99219 35.746 7.10807 35.384 7.33984C35.022 7.56901 34.7356 7.90755 34.5246 8.35547C34.3163 8.80078 34.2121 9.34896 34.2121 10C34.2121 10.651 34.3163 11.2005 34.5246 11.6484C34.7356 12.0937 35.022 12.4323 35.384 12.6641C35.746 12.8932 36.1575 13.0078 36.6184 13.0078C37.0767 13.0078 37.4869 12.8932 37.8489 12.6641C38.2135 12.4323 38.4999 12.0937 38.7082 11.6484C38.9192 11.2005 39.0246 10.651 39.0246 10ZM49.1141 10C49.1141 10.8542 48.9578 11.5885 48.6453 12.2031C48.3328 12.8151 47.9044 13.2865 47.3602 13.6172C46.8185 13.9453 46.2026 14.1094 45.5125 14.1094C44.8198 14.1094 44.2013 13.9453 43.657 13.6172C43.1154 13.2865 42.6883 12.8138 42.3758 12.1992C42.0633 11.5846 41.907 10.8516 41.907 10C41.907 9.14583 42.0633 8.41276 42.3758 7.80078C42.6883 7.1862 43.1154 6.71484 43.657 6.38672C44.2013 6.05599 44.8198 5.89062 45.5125 5.89062C46.2026 5.89062 46.8185 6.05599 47.3602 6.38672C47.9044 6.71484 48.3328 7.1862 48.6453 7.80078C48.9578 8.41276 49.1141 9.14583 49.1141 10ZM47.9188 10C47.9188 9.34896 47.8133 8.80078 47.6023 8.35547C47.394 7.90755 47.1076 7.56901 46.743 7.33984C46.381 7.10807 45.9708 6.99219 45.5125 6.99219C45.0516 6.99219 44.6401 7.10807 44.2781 7.33984C43.9161 7.56901 43.6297 7.90755 43.4188 8.35547C43.2104 8.80078 43.1063 9.34896 43.1063 10C43.1063 10.651 43.2104 11.2005 43.4188 11.6484C43.6297 12.0937 43.9161 12.4323 44.2781 12.6641C44.6401 12.8932 45.0516 13.0078 45.5125 13.0078C45.9708 13.0078 46.381 12.8932 46.743 12.6641C47.1076 12.4323 47.394 12.0937 47.6023 11.6484C47.8133 11.2005 47.9188 10.651 47.9188 10ZM55.4222 8.10156C55.3806 7.73177 55.2087 7.44531 54.9066 7.24219C54.6045 7.03646 54.2243 6.93359 53.766 6.93359C53.4379 6.93359 53.154 6.98568 52.9144 7.08984C52.6748 7.19141 52.4886 7.33203 52.3558 7.51172C52.2256 7.6888 52.1605 7.89062 52.1605 8.11719C52.1605 8.30729 52.2048 8.47135 52.2933 8.60937C52.3845 8.7474 52.503 8.86328 52.6488 8.95703C52.7972 9.04818 52.9561 9.125 53.1254 9.1875C53.2946 9.2474 53.4574 9.29687 53.6136 9.33594L54.3949 9.53906C54.6501 9.60156 54.9118 9.6862 55.18 9.79297C55.4483 9.89974 55.697 10.0404 55.9261 10.2148C56.1553 10.3893 56.3402 10.6055 56.4808 10.8633C56.624 11.1211 56.6957 11.4297 56.6957 11.7891C56.6957 12.2422 56.5785 12.6445 56.3441 12.9961C56.1123 13.3477 55.7751 13.625 55.3324 13.8281C54.8923 14.0313 54.3597 14.1328 53.7347 14.1328C53.1358 14.1328 52.6175 14.0378 52.18 13.8477C51.7425 13.6576 51.4001 13.388 51.1527 13.0391C50.9053 12.6875 50.7686 12.2708 50.7425 11.7891H51.9535C51.9769 12.0781 52.0707 12.319 52.2347 12.5117C52.4014 12.7018 52.6136 12.8437 52.8714 12.9375C53.1319 13.0286 53.417 13.0742 53.7269 13.0742C54.0681 13.0742 54.3714 13.0208 54.6371 12.9141C54.9053 12.8047 55.1162 12.6536 55.2699 12.4609C55.4235 12.2656 55.5004 12.0378 55.5004 11.7773C55.5004 11.5404 55.4326 11.3464 55.2972 11.1953C55.1644 11.0443 54.9834 10.9193 54.7543 10.8203C54.5277 10.7214 54.2712 10.6341 53.9847 10.5586L53.0394 10.3008C52.3988 10.1263 51.891 9.86979 51.516 9.53125C51.1436 9.19271 50.9574 8.74479 50.9574 8.1875C50.9574 7.72656 51.0824 7.32422 51.3324 6.98047C51.5824 6.63672 51.9209 6.36979 52.348 6.17969C52.7751 5.98698 53.2569 5.89062 53.7933 5.89062C54.335 5.89062 54.8129 5.98568 55.2269 6.17578C55.6436 6.36589 55.9717 6.6276 56.2113 6.96094C56.4509 7.29167 56.5759 7.67187 56.5863 8.10156H55.4222ZM58.1835 7.03906V6H64.3749V7.03906H61.8788V14H60.6757V7.03906H58.1835Z" fill="#EBECF0"/>
<path d="M73 14.95C72.3237 14.95 71.663 14.7467 71.1036 14.3667C70.5442 13.9866 70.1119 13.4473 69.8627 12.8186C69.6135 12.1899 69.559 11.5009 69.7061 10.8408C69.8532 10.1807 70.1953 9.58003 70.6879 9.11667C71.2918 8.54832 72.775 7.52502 72.55 5.27502C75.25 7.07502 76.6 8.87502 73.9 11.575C74.35 11.575 75.025 11.575 76.15 10.4635C76.2715 10.8114 76.375 11.1853 76.375 11.575C76.375 12.4701 76.0194 13.3286 75.3864 13.9615C74.7535 14.5944 73.8951 14.95 73 14.95Z" fill="white" fill-opacity="0.8"/>
<defs>
<radialGradient id="paint0_radial_5523_44522" cx="0" cy="0" r="1" gradientUnits="userSpaceOnUse" gradientTransform="translate(82.9999 9.99982) rotate(180) scale(82.9999 1880)">
<stop stop-color="#51ABFF"/>
<stop offset="0.416336" stop-color="#343BE1"/>
<stop offset="1" stop-color="#582CD1"/>
</radialGradient>
<radialGradient id="paint1_radial_5523_44522" cx="0" cy="0" r="1" gradientUnits="userSpaceOnUse" gradientTransform="translate(82.9999 9.99982) rotate(180) scale(82.9999 1880)">
<stop stop-color="#51ABFF"/>
<stop offset="0.416336" stop-color="#343BE1"/>
<stop offset="1" stop-color="#582CD1"/>
</radialGradient>
</defs>
</svg>
