<svg width="92" height="20" viewBox="0 0 92 20" fill="none" xmlns="http://www.w3.org/2000/svg">
<rect x="0.25" y="0.25" width="91.5" height="19.5" rx="3.75" fill="url(#paint0_linear_5523_12847)" fill-opacity="0.4"/>
<rect x="0.25" y="0.25" width="91.5" height="19.5" rx="3.75" stroke="url(#paint1_linear_5523_12847)" stroke-width="0.5"/>
<path d="M9.80469 6V14H8.59375V7.21094H8.54688L6.63281 8.46094V7.30469L8.62891 6H9.80469ZM12.732 14.0742C12.5185 14.0742 12.3349 13.9987 12.1812 13.8477C12.0276 13.694 11.9507 13.5091 11.9507 13.293C11.9507 13.0794 12.0276 12.8971 12.1812 12.7461C12.3349 12.5924 12.5185 12.5156 12.732 12.5156C12.9455 12.5156 13.1291 12.5924 13.2828 12.7461C13.4364 12.8971 13.5132 13.0794 13.5132 13.293C13.5132 13.4362 13.4768 13.5677 13.4039 13.6875C13.3336 13.8047 13.2398 13.8984 13.1226 13.9687C13.0054 14.0391 12.8752 14.0742 12.732 14.0742ZM18.0138 14.1094C17.5242 14.1094 17.0841 14.0156 16.6935 13.8281C16.3055 13.638 15.9956 13.3776 15.7638 13.0469C15.532 12.7161 15.4083 12.3385 15.3927 11.9141H16.5646C16.5932 12.2578 16.7456 12.5404 17.0216 12.7617C17.2976 12.9831 17.6284 13.0937 18.0138 13.0937C18.3211 13.0937 18.5932 13.0234 18.8302 12.8828C19.0698 12.7396 19.2573 12.543 19.3927 12.293C19.5307 12.043 19.5997 11.7578 19.5997 11.4375C19.5997 11.112 19.5294 10.8216 19.3888 10.5664C19.2482 10.3112 19.0542 10.1107 18.8068 9.96484C18.562 9.81901 18.2807 9.74479 17.963 9.74219C17.7208 9.74219 17.4773 9.78385 17.2325 9.86719C16.9877 9.95052 16.7898 10.0599 16.6388 10.1953L15.5333 10.0312L15.9825 6H20.381V7.03516H16.9864L16.7325 9.27344H16.7794C16.9357 9.1224 17.1427 8.99609 17.4005 8.89453C17.6609 8.79297 17.9396 8.74219 18.2364 8.74219C18.7234 8.74219 19.157 8.85807 19.5372 9.08984C19.92 9.32161 20.2208 9.63802 20.4396 10.0391C20.6609 10.4375 20.7703 10.8958 20.7677 11.4141C20.7703 11.9323 20.6531 12.3945 20.4161 12.8008C20.1818 13.207 19.8562 13.5273 19.4396 13.7617C19.0255 13.9935 18.5502 14.1094 18.0138 14.1094ZM23.5837 6L25.4977 9.12891H25.5602L27.4743 6H28.8727L26.3805 10L28.8884 14H27.4821L25.5602 10.9141H25.4977L23.5759 14H22.1696L24.7204 10L22.1852 6H23.5837ZM33.8611 14V6H36.7908C37.3585 6 37.8286 6.09375 38.201 6.28125C38.5734 6.46615 38.852 6.71745 39.0369 7.03516C39.2218 7.35026 39.3143 7.70573 39.3143 8.10156C39.3143 8.4349 39.2531 8.71615 39.1307 8.94531C39.0083 9.17187 38.8442 9.35417 38.6385 9.49219C38.4354 9.6276 38.2114 9.72656 37.9666 9.78906V9.86719C38.2322 9.88021 38.4913 9.96615 38.7439 10.125C38.9992 10.2812 39.2101 10.5039 39.3768 10.793C39.5434 11.082 39.6268 11.4336 39.6268 11.8477C39.6268 12.2565 39.5304 12.6237 39.3377 12.9492C39.1476 13.2721 38.8533 13.5286 38.4549 13.7187C38.0564 13.9062 37.5473 14 36.9275 14H33.8611ZM35.0682 12.9648H36.8104C37.3885 12.9648 37.8025 12.8529 38.0525 12.6289C38.3025 12.4049 38.4275 12.125 38.4275 11.7891C38.4275 11.5365 38.3637 11.3047 38.2361 11.0937C38.1085 10.8828 37.9262 10.7148 37.6893 10.5898C37.4549 10.4648 37.1762 10.4023 36.8533 10.4023H35.0682V12.9648ZM35.0682 9.46094H36.6854C36.9562 9.46094 37.1997 9.40885 37.4158 9.30469C37.6346 9.20052 37.8077 9.05469 37.9354 8.86719C38.0656 8.67708 38.1307 8.45312 38.1307 8.19531C38.1307 7.86458 38.0148 7.58724 37.783 7.36328C37.5512 7.13932 37.1958 7.02734 36.7166 7.02734H35.0682V9.46094ZM48.4476 10C48.4476 10.8542 48.2914 11.5885 47.9789 12.2031C47.6664 12.8151 47.238 13.2865 46.6937 13.6172C46.152 13.9453 45.5362 14.1094 44.8461 14.1094C44.1533 14.1094 43.5349 13.9453 42.9906 13.6172C42.4489 13.2865 42.0218 12.8138 41.7093 12.1992C41.3968 11.5846 41.2406 10.8516 41.2406 10C41.2406 9.14583 41.3968 8.41276 41.7093 7.80078C42.0218 7.1862 42.4489 6.71484 42.9906 6.38672C43.5349 6.05599 44.1533 5.89062 44.8461 5.89062C45.5362 5.89062 46.152 6.05599 46.6937 6.38672C47.238 6.71484 47.6664 7.1862 47.9789 7.80078C48.2914 8.41276 48.4476 9.14583 48.4476 10ZM47.2523 10C47.2523 9.34896 47.1468 8.80078 46.9359 8.35547C46.7276 7.90755 46.4411 7.56901 46.0765 7.33984C45.7145 7.10807 45.3044 6.99219 44.8461 6.99219C44.3851 6.99219 43.9737 7.10807 43.6117 7.33984C43.2497 7.56901 42.9632 7.90755 42.7523 8.35547C42.544 8.80078 42.4398 9.34896 42.4398 10C42.4398 10.651 42.544 11.2005 42.7523 11.6484C42.9632 12.0937 43.2497 12.4323 43.6117 12.6641C43.9737 12.8932 44.3851 13.0078 44.8461 13.0078C45.3044 13.0078 45.7145 12.8932 46.0765 12.6641C46.4411 12.4323 46.7276 12.0937 46.9359 11.6484C47.1468 11.2005 47.2523 10.651 47.2523 10ZM57.3417 10C57.3417 10.8542 57.1855 11.5885 56.873 12.2031C56.5605 12.8151 56.1321 13.2865 55.5878 13.6172C55.0461 13.9453 54.4303 14.1094 53.7402 14.1094C53.0474 14.1094 52.429 13.9453 51.8847 13.6172C51.343 13.2865 50.9159 12.8138 50.6034 12.1992C50.2909 11.5846 50.1347 10.8516 50.1347 10C50.1347 9.14583 50.2909 8.41276 50.6034 7.80078C50.9159 7.1862 51.343 6.71484 51.8847 6.38672C52.429 6.05599 53.0474 5.89062 53.7402 5.89062C54.4303 5.89062 55.0461 6.05599 55.5878 6.38672C56.1321 6.71484 56.5605 7.1862 56.873 7.80078C57.1855 8.41276 57.3417 9.14583 57.3417 10ZM56.1464 10C56.1464 9.34896 56.0409 8.80078 55.83 8.35547C55.6217 7.90755 55.3352 7.56901 54.9706 7.33984C54.6086 7.10807 54.1985 6.99219 53.7402 6.99219C53.2792 6.99219 52.8678 7.10807 52.5058 7.33984C52.1438 7.56901 51.8573 7.90755 51.6464 8.35547C51.4381 8.80078 51.3339 9.34896 51.3339 10C51.3339 10.651 51.4381 11.2005 51.6464 11.6484C51.8573 12.0937 52.1438 12.4323 52.5058 12.6641C52.8678 12.8932 53.2792 13.0078 53.7402 13.0078C54.1985 13.0078 54.6086 12.8932 54.9706 12.6641C55.3352 12.4323 55.6217 12.0937 55.83 11.6484C56.0409 11.2005 56.1464 10.651 56.1464 10ZM63.6499 8.10156C63.6082 7.73177 63.4363 7.44531 63.1343 7.24219C62.8322 7.03646 62.452 6.93359 61.9936 6.93359C61.6655 6.93359 61.3817 6.98568 61.1421 7.08984C60.9025 7.19141 60.7163 7.33203 60.5835 7.51172C60.4533 7.6888 60.3882 7.89062 60.3882 8.11719C60.3882 8.30729 60.4324 8.47135 60.521 8.60937C60.6121 8.7474 60.7306 8.86328 60.8764 8.95703C61.0249 9.04818 61.1837 9.125 61.353 9.1875C61.5223 9.2474 61.685 9.29687 61.8413 9.33594L62.6225 9.53906C62.8777 9.60156 63.1395 9.6862 63.4077 9.79297C63.6759 9.89974 63.9246 10.0404 64.1538 10.2148C64.383 10.3893 64.5679 10.6055 64.7085 10.8633C64.8517 11.1211 64.9233 11.4297 64.9233 11.7891C64.9233 12.2422 64.8061 12.6445 64.5718 12.9961C64.34 13.3477 64.0027 13.625 63.56 13.8281C63.1199 14.0313 62.5874 14.1328 61.9624 14.1328C61.3634 14.1328 60.8452 14.0378 60.4077 13.8477C59.9702 13.6576 59.6277 13.388 59.3804 13.0391C59.133 12.6875 58.9962 12.2708 58.9702 11.7891H60.1811C60.2046 12.0781 60.2983 12.319 60.4624 12.5117C60.629 12.7018 60.8413 12.8437 61.0991 12.9375C61.3595 13.0286 61.6447 13.0742 61.9546 13.0742C62.2957 13.0742 62.5991 13.0208 62.8647 12.9141C63.133 12.8047 63.3439 12.6536 63.4975 12.4609C63.6512 12.2656 63.728 12.0378 63.728 11.7773C63.728 11.5404 63.6603 11.3464 63.5249 11.1953C63.3921 11.0443 63.2111 10.9193 62.9819 10.8203C62.7554 10.7214 62.4988 10.6341 62.2124 10.5586L61.2671 10.3008C60.6264 10.1263 60.1186 9.86979 59.7436 9.53125C59.3712 9.19271 59.185 8.74479 59.185 8.1875C59.185 7.72656 59.31 7.32422 59.56 6.98047C59.81 6.63672 60.1486 6.36979 60.5757 6.17969C61.0027 5.98698 61.4845 5.89062 62.021 5.89062C62.5626 5.89062 63.0405 5.98568 63.4546 6.17578C63.8712 6.36589 64.1994 6.6276 64.4389 6.96094C64.6785 7.29167 64.8035 7.67187 64.8139 8.10156H63.6499ZM66.4112 7.03906V6H72.6026V7.03906H70.1065V14H68.9034V7.03906H66.4112Z" fill="#EBECF0"/>
<path d="M82 14.95C81.3237 14.95 80.663 14.7467 80.1036 14.3667C79.5442 13.9866 79.1119 13.4473 78.8627 12.8186C78.6135 12.1899 78.559 11.5009 78.7061 10.8408C78.8532 10.1807 79.1953 9.58003 79.6879 9.11667C80.2918 8.54832 81.775 7.52502 81.55 5.27502C84.25 7.07502 85.6 8.87502 82.9 11.575C83.35 11.575 84.025 11.575 85.15 10.4635C85.2715 10.8114 85.375 11.1853 85.375 11.575C85.375 12.4701 85.0194 13.3286 84.3864 13.9615C83.7535 14.5944 82.8951 14.95 82 14.95Z" fill="white" fill-opacity="0.8"/>
<defs>
<linearGradient id="paint0_linear_5523_12847" x1="0" y1="10" x2="92" y2="10" gradientUnits="userSpaceOnUse">
<stop stop-color="#88ADFF"/>
<stop offset="0.21" stop-color="#3C97FF"/>
<stop offset="0.48" stop-color="#2F80FF"/>
<stop offset="0.75" stop-color="#567AD6"/>
<stop offset="1" stop-color="#6595FF"/>
</linearGradient>
<linearGradient id="paint1_linear_5523_12847" x1="0" y1="10" x2="92" y2="10" gradientUnits="userSpaceOnUse">
<stop stop-color="#88ADFF"/>
<stop offset="0.21" stop-color="#3C97FF"/>
<stop offset="0.48" stop-color="#2F80FF"/>
<stop offset="0.75" stop-color="#567AD6"/>
<stop offset="1" stop-color="#6595FF"/>
</linearGradient>
</defs>
</svg>
