<svg width="89" height="20" viewBox="0 0 89 20" fill="none" xmlns="http://www.w3.org/2000/svg">
<rect x="0.25" y="0.25" width="88.5" height="19.5" rx="3.75" fill="url(#paint0_linear_5999_10974)" fill-opacity="0.2"/>
<rect x="0.25" y="0.25" width="88.5" height="19.5" rx="3.75" stroke="url(#paint1_linear_5999_10974)" stroke-width="0.5"/>
<path d="M9.80469 6V14H8.59375V7.21094H8.54688L6.63281 8.46094V7.30469L8.62891 6H9.80469ZM12.732 14.0742C12.5185 14.0742 12.3349 13.9987 12.1812 13.8477C12.0276 13.694 11.9507 13.5091 11.9507 13.293C11.9507 13.0794 12.0276 12.8971 12.1812 12.7461C12.3349 12.5924 12.5185 12.5156 12.732 12.5156C12.9455 12.5156 13.1291 12.5924 13.2828 12.7461C13.4364 12.8971 13.5132 13.0794 13.5132 13.293C13.5132 13.4362 13.4768 13.5677 13.4039 13.6875C13.3336 13.8047 13.2398 13.8984 13.1226 13.9687C13.0054 14.0391 12.8752 14.0742 12.732 14.0742ZM17.5704 6V14H16.3595V7.21094H16.3126L14.3986 8.46094V7.30469L16.3946 6H17.5704ZM21.1237 6L23.0378 9.12891H23.1003L25.0143 6H26.4128L23.9206 10L26.4284 14H25.0221L23.1003 10.9141H23.0378L21.1159 14H19.7096L22.2604 10L19.7253 6H21.1237ZM31.4012 14V6H34.3309C34.8986 6 35.3686 6.09375 35.741 6.28125C36.1134 6.46615 36.3921 6.71745 36.577 7.03516C36.7618 7.35026 36.8543 7.70573 36.8543 8.10156C36.8543 8.4349 36.7931 8.71615 36.6707 8.94531C36.5483 9.17187 36.3842 9.35417 36.1785 9.49219C35.9754 9.6276 35.7514 9.72656 35.5066 9.78906V9.86719C35.7723 9.88021 36.0314 9.96615 36.284 10.125C36.5392 10.2812 36.7501 10.5039 36.9168 10.793C37.0835 11.082 37.1668 11.4336 37.1668 11.8477C37.1668 12.2565 37.0704 12.6237 36.8777 12.9492C36.6876 13.2721 36.3934 13.5286 35.9949 13.7187C35.5965 13.9062 35.0874 14 34.4676 14H31.4012ZM32.6082 12.9648H34.3504C34.9285 12.9648 35.3426 12.8529 35.5926 12.6289C35.8426 12.4049 35.9676 12.125 35.9676 11.7891C35.9676 11.5365 35.9038 11.3047 35.7762 11.0937C35.6486 10.8828 35.4663 10.7148 35.2293 10.5898C34.9949 10.4648 34.7163 10.4023 34.3934 10.4023H32.6082V12.9648ZM32.6082 9.46094H34.2254C34.4962 9.46094 34.7397 9.40885 34.9559 9.30469C35.1746 9.20052 35.3478 9.05469 35.4754 8.86719C35.6056 8.67708 35.6707 8.45312 35.6707 8.19531C35.6707 7.86458 35.5548 7.58724 35.323 7.36328C35.0913 7.13932 34.7358 7.02734 34.2566 7.02734H32.6082V9.46094ZM45.9877 10C45.9877 10.8542 45.8314 11.5885 45.5189 12.2031C45.2064 12.8151 44.778 13.2865 44.2337 13.6172C43.6921 13.9453 43.0762 14.1094 42.3861 14.1094C41.6934 14.1094 41.0749 13.9453 40.5306 13.6172C39.989 13.2865 39.5619 12.8138 39.2494 12.1992C38.9369 11.5846 38.7806 10.8516 38.7806 10C38.7806 9.14583 38.9369 8.41276 39.2494 7.80078C39.5619 7.1862 39.989 6.71484 40.5306 6.38672C41.0749 6.05599 41.6934 5.89062 42.3861 5.89062C43.0762 5.89062 43.6921 6.05599 44.2337 6.38672C44.778 6.71484 45.2064 7.1862 45.5189 7.80078C45.8314 8.41276 45.9877 9.14583 45.9877 10ZM44.7923 10C44.7923 9.34896 44.6869 8.80078 44.4759 8.35547C44.2676 7.90755 43.9811 7.56901 43.6166 7.33984C43.2546 7.10807 42.8444 6.99219 42.3861 6.99219C41.9252 6.99219 41.5137 7.10807 41.1517 7.33984C40.7897 7.56901 40.5033 7.90755 40.2923 8.35547C40.084 8.80078 39.9798 9.34896 39.9798 10C39.9798 10.651 40.084 11.2005 40.2923 11.6484C40.5033 12.0937 40.7897 12.4323 41.1517 12.6641C41.5137 12.8932 41.9252 13.0078 42.3861 13.0078C42.8444 13.0078 43.2546 12.8932 43.6166 12.6641C43.9811 12.4323 44.2676 12.0937 44.4759 11.6484C44.6869 11.2005 44.7923 10.651 44.7923 10ZM54.8818 10C54.8818 10.8542 54.7255 11.5885 54.413 12.2031C54.1005 12.8151 53.6721 13.2865 53.1279 13.6172C52.5862 13.9453 51.9703 14.1094 51.2802 14.1094C50.5875 14.1094 49.969 13.9453 49.4247 13.6172C48.8831 13.2865 48.456 12.8138 48.1435 12.1992C47.831 11.5846 47.6747 10.8516 47.6747 10C47.6747 9.14583 47.831 8.41276 48.1435 7.80078C48.456 7.1862 48.8831 6.71484 49.4247 6.38672C49.969 6.05599 50.5875 5.89062 51.2802 5.89062C51.9703 5.89062 52.5862 6.05599 53.1279 6.38672C53.6721 6.71484 54.1005 7.1862 54.413 7.80078C54.7255 8.41276 54.8818 9.14583 54.8818 10ZM53.6864 10C53.6864 9.34896 53.581 8.80078 53.37 8.35547C53.1617 7.90755 52.8752 7.56901 52.5107 7.33984C52.1487 7.10807 51.7385 6.99219 51.2802 6.99219C50.8193 6.99219 50.4078 7.10807 50.0458 7.33984C49.6838 7.56901 49.3974 7.90755 49.1864 8.35547C48.9781 8.80078 48.8739 9.34896 48.8739 10C48.8739 10.651 48.9781 11.2005 49.1864 11.6484C49.3974 12.0937 49.6838 12.4323 50.0458 12.6641C50.4078 12.8932 50.8193 13.0078 51.2802 13.0078C51.7385 13.0078 52.1487 12.8932 52.5107 12.6641C52.8752 12.4323 53.1617 12.0937 53.37 11.6484C53.581 11.2005 53.6864 10.651 53.6864 10ZM61.1899 8.10156C61.1483 7.73177 60.9764 7.44531 60.6743 7.24219C60.3722 7.03646 59.992 6.93359 59.5337 6.93359C59.2055 6.93359 58.9217 6.98568 58.6821 7.08984C58.4425 7.19141 58.2563 7.33203 58.1235 7.51172C57.9933 7.6888 57.9282 7.89062 57.9282 8.11719C57.9282 8.30729 57.9725 8.47135 58.061 8.60937C58.1522 8.7474 58.2707 8.86328 58.4165 8.95703C58.5649 9.04818 58.7238 9.125 58.893 9.1875C59.0623 9.2474 59.2251 9.29687 59.3813 9.33594L60.1626 9.53906C60.4178 9.60156 60.6795 9.6862 60.9477 9.79297C61.216 9.89974 61.4647 10.0404 61.6938 10.2148C61.923 10.3893 62.1079 10.6055 62.2485 10.8633C62.3917 11.1211 62.4634 11.4297 62.4634 11.7891C62.4634 12.2422 62.3462 12.6445 62.1118 12.9961C61.88 13.3477 61.5428 13.625 61.1001 13.8281C60.66 14.0313 60.1274 14.1328 59.5024 14.1328C58.9035 14.1328 58.3852 14.0378 57.9477 13.8477C57.5102 13.6576 57.1678 13.388 56.9204 13.0391C56.673 12.6875 56.5363 12.2708 56.5102 11.7891H57.7212C57.7446 12.0781 57.8384 12.319 58.0024 12.5117C58.1691 12.7018 58.3813 12.8437 58.6391 12.9375C58.8996 13.0286 59.1847 13.0742 59.4946 13.0742C59.8358 13.0742 60.1391 13.0208 60.4048 12.9141C60.673 12.8047 60.8839 12.6536 61.0376 12.4609C61.1912 12.2656 61.268 12.0378 61.268 11.7773C61.268 11.5404 61.2003 11.3464 61.0649 11.1953C60.9321 11.0443 60.7511 10.9193 60.522 10.8203C60.2954 10.7214 60.0389 10.6341 59.7524 10.5586L58.8071 10.3008C58.1665 10.1263 57.6587 9.86979 57.2837 9.53125C56.9113 9.19271 56.7251 8.74479 56.7251 8.1875C56.7251 7.72656 56.8501 7.32422 57.1001 6.98047C57.3501 6.63672 57.6886 6.36979 58.1157 6.17969C58.5428 5.98698 59.0246 5.89062 59.561 5.89062C60.1027 5.89062 60.5805 5.98568 60.9946 6.17578C61.4113 6.36589 61.7394 6.6276 61.979 6.96094C62.2186 7.29167 62.3436 7.67187 62.354 8.10156H61.1899ZM63.9512 7.03906V6H70.1426V7.03906H67.6465V14H66.4434V7.03906H63.9512Z" fill="#EBECF0"/>
<path d="M79 14.95C78.3237 14.95 77.663 14.7467 77.1036 14.3667C76.5442 13.9866 76.1119 13.4473 75.8627 12.8186C75.6135 12.1899 75.559 11.5009 75.7061 10.8408C75.8532 10.1807 76.1953 9.58003 76.6879 9.11667C77.2918 8.54832 78.775 7.52502 78.55 5.27502C81.25 7.07502 82.6 8.87502 79.9 11.575C80.35 11.575 81.025 11.575 82.15 10.4635C82.2715 10.8114 82.375 11.1853 82.375 11.575C82.375 12.4701 82.0194 13.3286 81.3864 13.9615C80.7535 14.5944 79.8951 14.95 79 14.95Z" fill="white" fill-opacity="0.8"/>
<defs>
<linearGradient id="paint0_linear_5999_10974" x1="0" y1="10" x2="89" y2="10" gradientUnits="userSpaceOnUse">
<stop stop-color="#88ADFF"/>
<stop offset="0.21" stop-color="#3C97FF"/>
<stop offset="0.48" stop-color="#2F80FF"/>
<stop offset="0.75" stop-color="#567AD6"/>
<stop offset="1" stop-color="#6595FF"/>
</linearGradient>
<linearGradient id="paint1_linear_5999_10974" x1="0" y1="10" x2="89" y2="10" gradientUnits="userSpaceOnUse">
<stop stop-color="#88ADFF"/>
<stop offset="0.21" stop-color="#3C97FF"/>
<stop offset="0.48" stop-color="#2F80FF"/>
<stop offset="0.75" stop-color="#567AD6"/>
<stop offset="1" stop-color="#6595FF"/>
</linearGradient>
</defs>
</svg>
