<svg width="92" height="20" viewBox="0 0 92 20" fill="none" xmlns="http://www.w3.org/2000/svg">
<rect x="0.25" y="0.25" width="91.5" height="19.5" rx="3.75" fill="url(#paint0_linear_5999_10978)" fill-opacity="0.3"/>
<rect x="0.25" y="0.25" width="91.5" height="19.5" rx="3.75" stroke="url(#paint1_linear_5999_10978)" stroke-width="0.5"/>
<path d="M9.80469 6V14H8.59375V7.21094H8.54688L6.63281 8.46094V7.30469L8.62891 6H9.80469ZM12.732 14.0742C12.5185 14.0742 12.3349 13.9987 12.1812 13.8477C12.0276 13.694 11.9507 13.5091 11.9507 13.293C11.9507 13.0794 12.0276 12.8971 12.1812 12.7461C12.3349 12.5924 12.5185 12.5156 12.732 12.5156C12.9455 12.5156 13.1291 12.5924 13.2828 12.7461C13.4364 12.8971 13.5132 13.0794 13.5132 13.293C13.5132 13.4362 13.4768 13.5677 13.4039 13.6875C13.3336 13.8047 13.2398 13.8984 13.1226 13.9687C13.0054 14.0391 12.8752 14.0742 12.732 14.0742ZM15.5021 14V13.125L18.2091 10.3203C18.4982 10.0156 18.7364 9.7487 18.9239 9.51953C19.114 9.28776 19.256 9.06771 19.3497 8.85937C19.4435 8.65104 19.4904 8.42969 19.4904 8.19531C19.4904 7.92969 19.4279 7.70052 19.3029 7.50781C19.1779 7.3125 19.0073 7.16276 18.7911 7.05859C18.575 6.95182 18.3315 6.89844 18.0607 6.89844C17.7742 6.89844 17.5242 6.95703 17.3107 7.07422C17.0971 7.19141 16.9331 7.35677 16.8185 7.57031C16.7039 7.78385 16.6466 8.03385 16.6466 8.32031H15.4943C15.4943 7.83333 15.6062 7.40755 15.8302 7.04297C16.0542 6.67839 16.3614 6.39583 16.7521 6.19531C17.1427 5.99219 17.5867 5.89062 18.0841 5.89062C18.5867 5.89062 19.0294 5.99089 19.4122 6.19141C19.7976 6.38932 20.0984 6.66016 20.3146 7.00391C20.5307 7.34505 20.6388 7.73047 20.6388 8.16016C20.6388 8.45703 20.5828 8.7474 20.4708 9.03125C20.3614 9.3151 20.17 9.63151 19.8966 9.98047C19.6232 10.3268 19.243 10.7474 18.756 11.2422L17.1661 12.9062V12.9648H20.7677V14H15.5021ZM23.6374 6L25.5514 9.12891H25.6139L27.528 6H28.9264L26.4343 10L28.9421 14H27.5358L25.6139 10.9141H25.5514L23.6296 14H22.2233L24.7741 10L22.2389 6H23.6374ZM33.9148 14V6H36.8445C37.4122 6 37.8823 6.09375 38.2547 6.28125C38.6271 6.46615 38.9057 6.71745 39.0906 7.03516C39.2755 7.35026 39.368 7.70573 39.368 8.10156C39.368 8.4349 39.3068 8.71615 39.1844 8.94531C39.062 9.17187 38.8979 9.35417 38.6922 9.49219C38.4891 9.6276 38.2651 9.72656 38.0203 9.78906V9.86719C38.2859 9.88021 38.5451 9.96615 38.7977 10.125C39.0529 10.2812 39.2638 10.5039 39.4305 10.793C39.5971 11.082 39.6805 11.4336 39.6805 11.8477C39.6805 12.2565 39.5841 12.6237 39.3914 12.9492C39.2013 13.2721 38.907 13.5286 38.5086 13.7187C38.1102 13.9062 37.601 14 36.9813 14H33.9148ZM35.1219 12.9648H36.8641C37.4422 12.9648 37.8563 12.8529 38.1063 12.6289C38.3563 12.4049 38.4813 12.125 38.4813 11.7891C38.4813 11.5365 38.4174 11.3047 38.2898 11.0937C38.1622 10.8828 37.9799 10.7148 37.743 10.5898C37.5086 10.4648 37.2299 10.4023 36.907 10.4023H35.1219V12.9648ZM35.1219 9.46094H36.7391C37.0099 9.46094 37.2534 9.40885 37.4695 9.30469C37.6883 9.20052 37.8615 9.05469 37.9891 8.86719C38.1193 8.67708 38.1844 8.45312 38.1844 8.19531C38.1844 7.86458 38.0685 7.58724 37.8367 7.36328C37.6049 7.13932 37.2495 7.02734 36.7703 7.02734H35.1219V9.46094ZM48.5013 10C48.5013 10.8542 48.3451 11.5885 48.0326 12.2031C47.7201 12.8151 47.2917 13.2865 46.7474 13.6172C46.2058 13.9453 45.5899 14.1094 44.8998 14.1094C44.2071 14.1094 43.5886 13.9453 43.0443 13.6172C42.5026 13.2865 42.0755 12.8138 41.763 12.1992C41.4505 11.5846 41.2943 10.8516 41.2943 10C41.2943 9.14583 41.4505 8.41276 41.763 7.80078C42.0755 7.1862 42.5026 6.71484 43.0443 6.38672C43.5886 6.05599 44.2071 5.89062 44.8998 5.89062C45.5899 5.89062 46.2058 6.05599 46.7474 6.38672C47.2917 6.71484 47.7201 7.1862 48.0326 7.80078C48.3451 8.41276 48.5013 9.14583 48.5013 10ZM47.306 10C47.306 9.34896 47.2005 8.80078 46.9896 8.35547C46.7813 7.90755 46.4948 7.56901 46.1302 7.33984C45.7683 7.10807 45.3581 6.99219 44.8998 6.99219C44.4388 6.99219 44.0274 7.10807 43.6654 7.33984C43.3034 7.56901 43.017 7.90755 42.806 8.35547C42.5977 8.80078 42.4935 9.34896 42.4935 10C42.4935 10.651 42.5977 11.2005 42.806 11.6484C43.017 12.0937 43.3034 12.4323 43.6654 12.6641C44.0274 12.8932 44.4388 13.0078 44.8998 13.0078C45.3581 13.0078 45.7683 12.8932 46.1302 12.6641C46.4948 12.4323 46.7813 12.0937 46.9896 11.6484C47.2005 11.2005 47.306 10.651 47.306 10ZM57.3954 10C57.3954 10.8542 57.2392 11.5885 56.9267 12.2031C56.6142 12.8151 56.1858 13.2865 55.6415 13.6172C55.0999 13.9453 54.484 14.1094 53.7939 14.1094C53.1012 14.1094 52.4827 13.9453 51.9384 13.6172C51.3967 13.2865 50.9697 12.8138 50.6572 12.1992C50.3447 11.5846 50.1884 10.8516 50.1884 10C50.1884 9.14583 50.3447 8.41276 50.6572 7.80078C50.9697 7.1862 51.3967 6.71484 51.9384 6.38672C52.4827 6.05599 53.1012 5.89062 53.7939 5.89062C54.484 5.89062 55.0999 6.05599 55.6415 6.38672C56.1858 6.71484 56.6142 7.1862 56.9267 7.80078C57.2392 8.41276 57.3954 9.14583 57.3954 10ZM56.2001 10C56.2001 9.34896 56.0947 8.80078 55.8837 8.35547C55.6754 7.90755 55.3889 7.56901 55.0243 7.33984C54.6624 7.10807 54.2522 6.99219 53.7939 6.99219C53.3329 6.99219 52.9215 7.10807 52.5595 7.33984C52.1975 7.56901 51.9111 7.90755 51.7001 8.35547C51.4918 8.80078 51.3876 9.34896 51.3876 10C51.3876 10.651 51.4918 11.2005 51.7001 11.6484C51.9111 12.0937 52.1975 12.4323 52.5595 12.6641C52.9215 12.8932 53.3329 13.0078 53.7939 13.0078C54.2522 13.0078 54.6624 12.8932 55.0243 12.6641C55.3889 12.4323 55.6754 12.0937 55.8837 11.6484C56.0947 11.2005 56.2001 10.651 56.2001 10ZM63.7036 8.10156C63.6619 7.73177 63.4901 7.44531 63.188 7.24219C62.8859 7.03646 62.5057 6.93359 62.0473 6.93359C61.7192 6.93359 61.4354 6.98568 61.1958 7.08984C60.9562 7.19141 60.77 7.33203 60.6372 7.51172C60.507 7.6888 60.4419 7.89062 60.4419 8.11719C60.4419 8.30729 60.4861 8.47135 60.5747 8.60937C60.6658 8.7474 60.7843 8.86328 60.9302 8.95703C61.0786 9.04818 61.2374 9.125 61.4067 9.1875C61.576 9.2474 61.7388 9.29687 61.895 9.33594L62.6763 9.53906C62.9315 9.60156 63.1932 9.6862 63.4614 9.79297C63.7296 9.89974 63.9783 10.0404 64.2075 10.2148C64.4367 10.3893 64.6216 10.6055 64.7622 10.8633C64.9054 11.1211 64.977 11.4297 64.977 11.7891C64.977 12.2422 64.8598 12.6445 64.6255 12.9961C64.3937 13.3477 64.0565 13.625 63.6138 13.8281C63.1736 14.0313 62.6411 14.1328 62.0161 14.1328C61.4171 14.1328 60.8989 14.0378 60.4614 13.8477C60.0239 13.6576 59.6815 13.388 59.4341 13.0391C59.1867 12.6875 59.0499 12.2708 59.0239 11.7891H60.2348C60.2583 12.0781 60.352 12.319 60.5161 12.5117C60.6828 12.7018 60.895 12.8437 61.1528 12.9375C61.4132 13.0286 61.6984 13.0742 62.0083 13.0742C62.3494 13.0742 62.6528 13.0208 62.9184 12.9141C63.1867 12.8047 63.3976 12.6536 63.5513 12.4609C63.7049 12.2656 63.7817 12.0378 63.7817 11.7773C63.7817 11.5404 63.714 11.3464 63.5786 11.1953C63.4458 11.0443 63.2648 10.9193 63.0356 10.8203C62.8091 10.7214 62.5526 10.6341 62.2661 10.5586L61.3208 10.3008C60.6802 10.1263 60.1723 9.86979 59.7973 9.53125C59.4249 9.19271 59.2388 8.74479 59.2388 8.1875C59.2388 7.72656 59.3638 7.32422 59.6138 6.98047C59.8638 6.63672 60.2023 6.36979 60.6294 6.17969C61.0565 5.98698 61.5382 5.89062 62.0747 5.89062C62.6164 5.89062 63.0942 5.98568 63.5083 6.17578C63.9249 6.36589 64.2531 6.6276 64.4927 6.96094C64.7322 7.29167 64.8572 7.67187 64.8677 8.10156H63.7036ZM66.4649 7.03906V6H72.6563V7.03906H70.1602V14H68.9571V7.03906H66.4649Z" fill="#EBECF0"/>
<path d="M82 14.95C81.3237 14.95 80.663 14.7467 80.1036 14.3667C79.5442 13.9866 79.1119 13.4473 78.8627 12.8186C78.6135 12.1899 78.559 11.5009 78.7061 10.8408C78.8532 10.1807 79.1953 9.58003 79.6879 9.11667C80.2918 8.54832 81.775 7.52502 81.55 5.27502C84.25 7.07502 85.6 8.87502 82.9 11.575C83.35 11.575 84.025 11.575 85.15 10.4635C85.2715 10.8114 85.375 11.1853 85.375 11.575C85.375 12.4701 85.0194 13.3286 84.3864 13.9615C83.7535 14.5944 82.8951 14.95 82 14.95Z" fill="white" fill-opacity="0.8"/>
<defs>
<linearGradient id="paint0_linear_5999_10978" x1="0" y1="10" x2="92" y2="10" gradientUnits="userSpaceOnUse">
<stop stop-color="#88ADFF"/>
<stop offset="0.21" stop-color="#3C97FF"/>
<stop offset="0.48" stop-color="#2F80FF"/>
<stop offset="0.75" stop-color="#567AD6"/>
<stop offset="1" stop-color="#6595FF"/>
</linearGradient>
<linearGradient id="paint1_linear_5999_10978" x1="0" y1="10" x2="92" y2="10" gradientUnits="userSpaceOnUse">
<stop stop-color="#88ADFF"/>
<stop offset="0.21" stop-color="#3C97FF"/>
<stop offset="0.48" stop-color="#2F80FF"/>
<stop offset="0.75" stop-color="#567AD6"/>
<stop offset="1" stop-color="#6595FF"/>
</linearGradient>
</defs>
</svg>
