<svg width="83" height="20" viewBox="0 0 83 20" fill="none" xmlns="http://www.w3.org/2000/svg">
<rect x="0.25" y="0.25" width="82.5" height="19.5" rx="3.75" fill="url(#paint0_linear_5523_12844)" fill-opacity="0.45"/>
<rect x="0.25" y="0.25" width="82.5" height="19.5" rx="3.75" fill="black" fill-opacity="0.2"/>
<rect x="0.25" y="0.25" width="82.5" height="19.5" rx="3.75" stroke="url(#paint1_linear_5523_12844)" stroke-width="0.5"/>
<path d="M9.55469 14.1094C9.01823 14.1094 8.53906 14.0169 8.11719 13.832C7.69792 13.6471 7.36589 13.3906 7.12109 13.0625C6.87891 12.7318 6.7487 12.349 6.73047 11.9141H7.95703C7.97266 12.151 8.05208 12.3568 8.19531 12.5312C8.34115 12.7031 8.53125 12.8359 8.76563 12.9297C9 13.0234 9.26042 13.0703 9.54688 13.0703C9.86198 13.0703 10.1406 13.0156 10.3828 12.9062C10.6276 12.7969 10.819 12.6445 10.957 12.4492C11.0951 12.2513 11.1641 12.0234 11.1641 11.7656C11.1641 11.4974 11.0951 11.2617 10.957 11.0586C10.8216 10.8529 10.6224 10.6914 10.3594 10.5742C10.099 10.457 9.78385 10.3984 9.41406 10.3984H8.73828V9.41406H9.41406C9.71094 9.41406 9.97135 9.36068 10.1953 9.25391C10.4219 9.14714 10.599 8.9987 10.7266 8.80859C10.8542 8.61589 10.918 8.39062 10.918 8.13281C10.918 7.88542 10.862 7.67057 10.75 7.48828C10.6406 7.30339 10.4844 7.15885 10.2813 7.05469C10.0807 6.95052 9.84375 6.89844 9.57031 6.89844C9.3099 6.89844 9.06641 6.94661 8.83984 7.04297C8.61589 7.13672 8.43359 7.27214 8.29297 7.44922C8.15234 7.6237 8.07682 7.83333 8.06641 8.07812H6.89844C6.91146 7.64583 7.03906 7.26562 7.28125 6.9375C7.52604 6.60937 7.84896 6.35286 8.25 6.16797C8.65104 5.98307 9.09635 5.89062 9.58594 5.89062C10.099 5.89062 10.5417 5.99089 10.9141 6.19141C11.2891 6.38932 11.5781 6.65365 11.7813 6.98437C11.987 7.3151 12.0885 7.67708 12.0859 8.07031C12.0885 8.51823 11.9635 8.89844 11.7109 9.21094C11.4609 9.52344 11.1276 9.73307 10.7109 9.83984V9.90234C11.2422 9.98307 11.6536 10.194 11.9453 10.5352C12.2396 10.8763 12.3854 11.2995 12.3828 11.8047C12.3854 12.2448 12.263 12.6393 12.0156 12.9883C11.7708 13.3372 11.4362 13.612 11.0117 13.8125C10.5872 14.0104 10.1016 14.1094 9.55469 14.1094ZM15.2486 6L17.1627 9.12891H17.2252L19.1392 6H20.5377L18.0455 10L20.5533 14H19.147L17.2252 10.9141H17.1627L15.2408 14H13.8345L16.3853 10L13.8502 6H15.2486ZM25.5261 14V6H28.4557C29.0235 6 29.4935 6.09375 29.8659 6.28125C30.2383 6.46615 30.5169 6.71745 30.7018 7.03516C30.8867 7.35026 30.9792 7.70573 30.9792 8.10156C30.9792 8.4349 30.918 8.71615 30.7956 8.94531C30.6732 9.17187 30.5091 9.35417 30.3034 9.49219C30.1003 9.6276 29.8763 9.72656 29.6315 9.78906V9.86719C29.8971 9.88021 30.1563 9.96615 30.4089 10.125C30.6641 10.2812 30.875 10.5039 31.0417 10.793C31.2083 11.082 31.2917 11.4336 31.2917 11.8477C31.2917 12.2565 31.1953 12.6237 31.0026 12.9492C30.8125 13.2721 30.5182 13.5286 30.1198 13.7187C29.7214 13.9062 29.2123 14 28.5925 14H25.5261ZM26.7331 12.9648H28.4753C29.0534 12.9648 29.4675 12.8529 29.7175 12.6289C29.9675 12.4049 30.0925 12.125 30.0925 11.7891C30.0925 11.5365 30.0287 11.3047 29.9011 11.0937C29.7735 10.8828 29.5912 10.7148 29.3542 10.5898C29.1198 10.4648 28.8412 10.4023 28.5182 10.4023H26.7331V12.9648ZM26.7331 9.46094H28.3503C28.6211 9.46094 28.8646 9.40885 29.0807 9.30469C29.2995 9.20052 29.4727 9.05469 29.6003 8.86719C29.7305 8.67708 29.7956 8.45312 29.7956 8.19531C29.7956 7.86458 29.6797 7.58724 29.4479 7.36328C29.2162 7.13932 28.8607 7.02734 28.3815 7.02734H26.7331V9.46094ZM40.1125 10C40.1125 10.8542 39.9563 11.5885 39.6438 12.2031C39.3313 12.8151 38.9029 13.2865 38.3586 13.6172C37.817 13.9453 37.2011 14.1094 36.511 14.1094C35.8183 14.1094 35.1998 13.9453 34.6555 13.6172C34.1138 13.2865 33.6868 12.8138 33.3743 12.1992C33.0618 11.5846 32.9055 10.8516 32.9055 10C32.9055 9.14583 33.0618 8.41276 33.3743 7.80078C33.6868 7.1862 34.1138 6.71484 34.6555 6.38672C35.1998 6.05599 35.8183 5.89062 36.511 5.89062C37.2011 5.89062 37.817 6.05599 38.3586 6.38672C38.9029 6.71484 39.3313 7.1862 39.6438 7.80078C39.9563 8.41276 40.1125 9.14583 40.1125 10ZM38.9172 10C38.9172 9.34896 38.8118 8.80078 38.6008 8.35547C38.3925 7.90755 38.106 7.56901 37.7414 7.33984C37.3795 7.10807 36.9693 6.99219 36.511 6.99219C36.05 6.99219 35.6386 7.10807 35.2766 7.33984C34.9146 7.56901 34.6282 7.90755 34.4172 8.35547C34.2089 8.80078 34.1047 9.34896 34.1047 10C34.1047 10.651 34.2089 11.2005 34.4172 11.6484C34.6282 12.0937 34.9146 12.4323 35.2766 12.6641C35.6386 12.8932 36.05 13.0078 36.511 13.0078C36.9693 13.0078 37.3795 12.8932 37.7414 12.6641C38.106 12.4323 38.3925 12.0937 38.6008 11.6484C38.8118 11.2005 38.9172 10.651 38.9172 10ZM49.0066 10C49.0066 10.8542 48.8504 11.5885 48.5379 12.2031C48.2254 12.8151 47.797 13.2865 47.2527 13.6172C46.7111 13.9453 46.0952 14.1094 45.4051 14.1094C44.7124 14.1094 44.0939 13.9453 43.5496 13.6172C43.0079 13.2865 42.5809 12.8138 42.2684 12.1992C41.9559 11.5846 41.7996 10.8516 41.7996 10C41.7996 9.14583 41.9559 8.41276 42.2684 7.80078C42.5809 7.1862 43.0079 6.71484 43.5496 6.38672C44.0939 6.05599 44.7124 5.89062 45.4051 5.89062C46.0952 5.89062 46.7111 6.05599 47.2527 6.38672C47.797 6.71484 48.2254 7.1862 48.5379 7.80078C48.8504 8.41276 49.0066 9.14583 49.0066 10ZM47.8113 10C47.8113 9.34896 47.7059 8.80078 47.4949 8.35547C47.2866 7.90755 47.0001 7.56901 46.6355 7.33984C46.2736 7.10807 45.8634 6.99219 45.4051 6.99219C44.9441 6.99219 44.5327 7.10807 44.1707 7.33984C43.8087 7.56901 43.5223 7.90755 43.3113 8.35547C43.103 8.80078 42.9988 9.34896 42.9988 10C42.9988 10.651 43.103 11.2005 43.3113 11.6484C43.5223 12.0937 43.8087 12.4323 44.1707 12.6641C44.5327 12.8932 44.9441 13.0078 45.4051 13.0078C45.8634 13.0078 46.2736 12.8932 46.6355 12.6641C47.0001 12.4323 47.2866 12.0937 47.4949 11.6484C47.7059 11.2005 47.8113 10.651 47.8113 10ZM55.3148 8.10156C55.2731 7.73177 55.1013 7.44531 54.7992 7.24219C54.4971 7.03646 54.1169 6.93359 53.6586 6.93359C53.3304 6.93359 53.0466 6.98568 52.807 7.08984C52.5674 7.19141 52.3812 7.33203 52.2484 7.51172C52.1182 7.6888 52.0531 7.89062 52.0531 8.11719C52.0531 8.30729 52.0974 8.47135 52.1859 8.60937C52.277 8.7474 52.3955 8.86328 52.5414 8.95703C52.6898 9.04818 52.8487 9.125 53.0179 9.1875C53.1872 9.2474 53.35 9.29687 53.5062 9.33594L54.2875 9.53906C54.5427 9.60156 54.8044 9.6862 55.0726 9.79297C55.3408 9.89974 55.5895 10.0404 55.8187 10.2148C56.0479 10.3893 56.2328 10.6055 56.3734 10.8633C56.5166 11.1211 56.5882 11.4297 56.5882 11.7891C56.5882 12.2422 56.4711 12.6445 56.2367 12.9961C56.0049 13.3477 55.6677 13.625 55.225 13.8281C54.7849 14.0313 54.2523 14.1328 53.6273 14.1328C53.0283 14.1328 52.5101 14.0378 52.0726 13.8477C51.6351 13.6576 51.2927 13.388 51.0453 13.0391C50.7979 12.6875 50.6612 12.2708 50.6351 11.7891H51.8461C51.8695 12.0781 51.9632 12.319 52.1273 12.5117C52.294 12.7018 52.5062 12.8437 52.764 12.9375C53.0244 13.0286 53.3096 13.0742 53.6195 13.0742C53.9606 13.0742 54.264 13.0208 54.5296 12.9141C54.7979 12.8047 55.0088 12.6536 55.1625 12.4609C55.3161 12.2656 55.3929 12.0378 55.3929 11.7773C55.3929 11.5404 55.3252 11.3464 55.1898 11.1953C55.057 11.0443 54.876 10.9193 54.6468 10.8203C54.4203 10.7214 54.1638 10.6341 53.8773 10.5586L52.932 10.3008C52.2914 10.1263 51.7836 9.86979 51.4086 9.53125C51.0362 9.19271 50.85 8.74479 50.85 8.1875C50.85 7.72656 50.975 7.32422 51.225 6.98047C51.475 6.63672 51.8135 6.36979 52.2406 6.17969C52.6677 5.98698 53.1494 5.89062 53.6859 5.89062C54.2276 5.89062 54.7054 5.98568 55.1195 6.17578C55.5362 6.36589 55.8643 6.6276 56.1039 6.96094C56.3435 7.29167 56.4685 7.67187 56.4789 8.10156H55.3148ZM58.0761 7.03906V6H64.2675V7.03906H61.7714V14H60.5683V7.03906H58.0761Z" fill="#EBECF0"/>
<path d="M73 14.95C72.3237 14.95 71.663 14.7467 71.1036 14.3667C70.5442 13.9866 70.1119 13.4473 69.8627 12.8186C69.6135 12.1899 69.559 11.5009 69.7061 10.8408C69.8532 10.1807 70.1953 9.58003 70.6879 9.11667C71.2918 8.54832 72.775 7.52502 72.55 5.27502C75.25 7.07502 76.6 8.87502 73.9 11.575C74.35 11.575 75.025 11.575 76.15 10.4635C76.2715 10.8114 76.375 11.1853 76.375 11.575C76.375 12.4701 76.0194 13.3286 75.3864 13.9615C74.7535 14.5944 73.8951 14.95 73 14.95Z" fill="white" fill-opacity="0.8"/>
<defs>
<linearGradient id="paint0_linear_5523_12844" x1="0" y1="10" x2="83" y2="10" gradientUnits="userSpaceOnUse">
<stop stop-color="#FFEDBC"/>
<stop offset="1" stop-color="#ED4264"/>
</linearGradient>
<linearGradient id="paint1_linear_5523_12844" x1="0" y1="10" x2="83" y2="10" gradientUnits="userSpaceOnUse">
<stop stop-color="#FFEDBC"/>
<stop offset="1" stop-color="#ED4264"/>
</linearGradient>
</defs>
</svg>
