<svg width="12" height="12" viewBox="0 0 12 12" fill="none" xmlns="http://www.w3.org/2000/svg">
<g clip-path="url(#clip0_5553_7992)">
<g clip-path="url(#clip1_5553_7992)">
<path d="M0.328125 6.0204L1.82449 6.68541C3.26543 7.32381 4.42516 8.46303 5.08816 9.89369L5.95438 11.7595L6.82057 9.89369C7.48355 8.46506 8.64332 7.32584 10.0843 6.68541L11.5806 6.0204L10.0843 5.35534C8.64332 4.71696 7.48355 3.57776 6.82057 2.14708L5.95438 0.28125L5.08816 2.14708C4.42516 3.57571 3.26543 4.71491 1.82449 5.35534L0.328125 6.0204Z" fill="url(#paint0_linear_5553_7992)"/>
<path d="M5.95438 0.874957L6.59374 2.25219C7.28223 3.73793 8.48664 4.92097 9.98292 5.58388C9.98294 5.58389 9.98297 5.5839 9.983 5.58391L10.965 6.02039L9.98273 6.45695L9.98272 6.45696C8.48669 7.12188 7.28234 8.30476 6.59382 9.78842C6.59381 9.78843 6.59381 9.78844 6.5938 9.78845L5.95438 11.1658L5.31499 9.78857C4.62648 8.30286 3.42213 7.11983 1.92587 6.45689L1.92602 6.45695L5.95438 0.874957ZM5.95438 0.874957L5.31493 2.25232C4.62639 3.73598 3.42207 4.91887 1.92602 5.58379L0.94369 6.02039L1.92575 6.45684L5.95438 0.874957Z" stroke="#D0D1D6" stroke-opacity="0.2" stroke-width="0.5"/>
</g>
</g>
<defs>
<linearGradient id="paint0_linear_5553_7992" x1="-4.40785e-09" y1="1.00262e-08" x2="10.5" y2="12" gradientUnits="userSpaceOnUse">
<stop stop-color="#0AF2AD"/>
<stop offset="1" stop-color="#0AF2AD" stop-opacity="0.4"/>
</linearGradient>
<clipPath id="clip0_5553_7992">
<rect width="12" height="12" fill="white"/>
</clipPath>
<clipPath id="clip1_5553_7992">
<rect width="12" height="12" fill="white"/>
</clipPath>
</defs>
</svg>
